<mxfile host="app.diagrams.net" modified="2023-04-14T03:27:07.564Z" agent="Mozilla/5.0 (Windows NT 10.0; WOW64) AppleWebKit/537.36 (KHTML, like Gecko) Chrome/86.0.4240.198 Safari/537.36" etag="uk20Ruuw5NV9QmQ4zsgq" version="21.1.5" type="github" pages="9">
  <diagram id="qvTGBLS4fW63hzWfm1Bi" name="第 1 页">
    <mxGraphModel dx="1434" dy="763" grid="1" gridSize="10" guides="1" tooltips="1" connect="1" arrows="1" fold="1" page="1" pageScale="1" pageWidth="827" pageHeight="1169" math="0" shadow="0">
      <root>
        <mxCell id="0" />
        <mxCell id="1" parent="0" />
        <mxCell id="2" value="hiveextd" style="rounded=0;whiteSpace=wrap;html=1;" parent="1" vertex="1">
          <mxGeometry x="130" y="210" width="120" height="60" as="geometry" />
        </mxCell>
        <mxCell id="3" value="hiveswitch" style="rounded=0;whiteSpace=wrap;html=1;" parent="1" vertex="1">
          <mxGeometry x="550" y="210" width="120" height="60" as="geometry" />
        </mxCell>
        <mxCell id="4" value="改1&lt;br&gt;访问板子时加锁，用完解锁" style="rounded=0;whiteSpace=wrap;html=1;" parent="1" vertex="1">
          <mxGeometry x="170" y="490" width="120" height="60" as="geometry" />
        </mxCell>
        <mxCell id="5" value="改2&lt;br&gt;改底层一点" style="rounded=0;whiteSpace=wrap;html=1;" parent="1" vertex="1">
          <mxGeometry x="530" y="490" width="120" height="60" as="geometry" />
        </mxCell>
        <mxCell id="6" value="&lt;br&gt;占用的时间长，可能解锁时间需要200ms以上?" style="whiteSpace=wrap;html=1;aspect=fixed;" parent="1" vertex="1">
          <mxGeometry x="170" y="550" width="120" height="120" as="geometry" />
        </mxCell>
        <mxCell id="7" value="如果后期需要将函数封装成中间件，不利于扩展" style="whiteSpace=wrap;html=1;aspect=fixed;" parent="1" vertex="1">
          <mxGeometry x="530" y="550" width="120" height="120" as="geometry" />
        </mxCell>
        <mxCell id="9" value="不改&lt;br&gt;用到的函数加锁" style="rounded=0;whiteSpace=wrap;html=1;" parent="1" vertex="1">
          <mxGeometry x="354" y="490" width="120" height="60" as="geometry" />
        </mxCell>
        <mxCell id="10" value="传参过多&lt;br&gt;多封装了一层不利于阅读且容易出错，容易发生加锁的程序下包含了其它加锁的地方，" style="whiteSpace=wrap;html=1;aspect=fixed;" parent="1" vertex="1">
          <mxGeometry x="354" y="550" width="120" height="120" as="geometry" />
        </mxCell>
      </root>
    </mxGraphModel>
  </diagram>
  <diagram id="inVJxPI1AraZg2GABPX5" name="第 19 页">
    <mxGraphModel dx="1434" dy="763" grid="1" gridSize="10" guides="1" tooltips="1" connect="1" arrows="1" fold="1" page="1" pageScale="1" pageWidth="827" pageHeight="1169" math="0" shadow="0">
      <root>
        <mxCell id="cgiCmLNuGWHLCZkL27pS-0" />
        <mxCell id="cgiCmLNuGWHLCZkL27pS-1" parent="cgiCmLNuGWHLCZkL27pS-0" />
        <mxCell id="cgiCmLNuGWHLCZkL27pS-5" value="" style="edgeStyle=none;html=1;" parent="cgiCmLNuGWHLCZkL27pS-1" source="cgiCmLNuGWHLCZkL27pS-2" target="cgiCmLNuGWHLCZkL27pS-4" edge="1">
          <mxGeometry relative="1" as="geometry" />
        </mxCell>
        <mxCell id="cgiCmLNuGWHLCZkL27pS-2" value="ta" style="shape=umlActor;verticalLabelPosition=bottom;verticalAlign=top;html=1;outlineConnect=0;" parent="cgiCmLNuGWHLCZkL27pS-1" vertex="1">
          <mxGeometry x="354" y="370" width="30" height="60" as="geometry" />
        </mxCell>
        <mxCell id="cgiCmLNuGWHLCZkL27pS-8" value="" style="edgeStyle=none;html=1;" parent="cgiCmLNuGWHLCZkL27pS-1" source="cgiCmLNuGWHLCZkL27pS-3" target="cgiCmLNuGWHLCZkL27pS-7" edge="1">
          <mxGeometry relative="1" as="geometry" />
        </mxCell>
        <mxCell id="cgiCmLNuGWHLCZkL27pS-3" value="me" style="shape=umlActor;verticalLabelPosition=bottom;verticalAlign=top;html=1;outlineConnect=0;" parent="cgiCmLNuGWHLCZkL27pS-1" vertex="1">
          <mxGeometry x="444" y="370" width="30" height="60" as="geometry" />
        </mxCell>
        <mxCell id="cgiCmLNuGWHLCZkL27pS-4" value="完成某个模块，结果：&lt;br&gt;了解该模块适用范围" style="whiteSpace=wrap;html=1;verticalAlign=top;" parent="cgiCmLNuGWHLCZkL27pS-1" vertex="1">
          <mxGeometry x="210" y="220" width="189" height="70" as="geometry" />
        </mxCell>
        <mxCell id="cgiCmLNuGWHLCZkL27pS-7" value="&lt;span&gt;完成某个模块，结果：&lt;/span&gt;&lt;br&gt;&lt;span&gt;了解该模块运行原理&lt;/span&gt;" style="whiteSpace=wrap;html=1;verticalAlign=top;" parent="cgiCmLNuGWHLCZkL27pS-1" vertex="1">
          <mxGeometry x="430" y="220" width="180" height="70" as="geometry" />
        </mxCell>
      </root>
    </mxGraphModel>
  </diagram>
  <diagram name="mqagent" id="sdldY5TjMS2h1RtGG8s-">
    <mxGraphModel dx="1434" dy="763" grid="1" gridSize="10" guides="1" tooltips="1" connect="1" arrows="1" fold="1" page="1" pageScale="1" pageWidth="827" pageHeight="1169" math="0" shadow="0">
      <root>
        <mxCell id="0" />
        <mxCell id="1" value="流程图" parent="0" />
        <mxCell id="3" value="&lt;div style=&quot;font-size: 1px&quot;&gt;&lt;font style=&quot;font-size:11.29px;font-family:SimSun;color:#feffff;direction:ltr;letter-spacing:0px;line-height:120%;opacity:1&quot;&gt;开始&lt;br/&gt;&lt;/font&gt;&lt;/div&gt;" style="verticalAlign=middle;align=center;vsdxID=1;fillColor=#44749f;gradientColor=none;shape=stencil(tVLLDsIgEPwajiQIMfFe638Qu22JCM2Ctv69kK0Rm9qDibeZndkXC1NV6PUATIoQ0V9gNE3smToyKY3rAU1MiKmaqar1CB36m2uIDzo7M7r6e64wUZ4UOUWKB9GdIH4irzWu8B42vRrPScNFXZzN+5mvl3qJXE8mcPRRR+Pdh2Y1dsBTE95a3c0TkBRGgKEIb6wg1/r+ssCXd/vLCgm8z9caa+n6pb48dwrRV1H1Ew==);strokeColor=#41719c;spacingTop=-1;spacingBottom=-1;spacingLeft=-1;spacingRight=-1;labelBackgroundColor=none;rounded=0;html=1;whiteSpace=wrap;" parent="1" vertex="1">
          <mxGeometry x="190" y="48" width="100" height="40" as="geometry" />
        </mxCell>
        <mxCell id="4" value="&lt;div style=&quot;font-size: 1px&quot;&gt;&lt;font style=&quot;font-size:11.29px;font-family:SimSun;color:#4f88bb;direction:ltr;letter-spacing:0px;line-height:120%;opacity:1&quot;&gt;Mqagent&lt;br/&gt;&lt;/font&gt;&lt;/div&gt;" style="verticalAlign=middle;align=center;vsdxID=2;fillColor=#feffff;gradientColor=#6cb9ff;shape=stencil(tZLBDoMgDIafhiMGQed2du49yEQlY2AKm+7tB8Nk6uLFZLf279f2JxSx0na8F4gS68DcxCBr1yF2RpRK3QmQzkeIVYiVjQHRgnnoOuY9D2SI7uYZJoyxj4QOSl4xOxZJ/hEukVVSb7JkG0zJbnTtgMPVF2GiszzJaORhaijy5HCK0gTlGxPJiPkoLQbjuJNGLx6lOLQC+224UbxdlOwgRP8j7/f3Z3vp3J4Pvj/fSKXi4czr60vxUrwyVr0B);strokeColor=#4f88bb;spacingTop=-1;spacingBottom=-1;spacingLeft=-1;spacingRight=-1;labelBackgroundColor=none;rounded=0;html=1;whiteSpace=wrap;" parent="1" vertex="1">
          <mxGeometry x="25" y="25" width="100" height="60" as="geometry" />
        </mxCell>
        <mxCell id="5" value="&lt;div style=&quot;font-size: 1px&quot;&gt;&lt;font style=&quot;font-size:11.29px;font-family:SimSun;color:#feffff;direction:ltr;letter-spacing:0px;line-height:120%;opacity:1&quot;&gt;获取命令行参数&lt;br/&gt;&lt;/font&gt;&lt;/div&gt;" style="verticalAlign=middle;align=center;vsdxID=3;fillColor=#5b9bd5;gradientColor=none;shape=stencil(nZBLDoAgDERP0z3SIyjew0SURgSD+Lu9kMZoXLhwN9O+tukAlrNpJg1SzDH4QW/URgNYgZTkjA4UkwJUgGXng+6DX1zLfmoymdXo17xh5zmRJ6Q42BWCfc2oJfdAr+Yv+AP9Cb7OJ3H/2JG1HNGz/84klThPVCc=);strokeColor=#c8c8c8;spacingTop=-1;spacingBottom=-1;spacingLeft=-1;spacingRight=-1;labelBackgroundColor=none;rounded=0;html=1;whiteSpace=wrap;" parent="1" vertex="1">
          <mxGeometry x="190" y="118" width="100" height="60" as="geometry" />
        </mxCell>
        <mxCell id="6" value="&lt;div style=&quot;font-size: 1px&quot;&gt;&lt;font style=&quot;font-size:11.29px;font-family:SimSun;color:#feffff;direction:ltr;letter-spacing:0px;line-height:120%;opacity:1&quot;&gt;初始化日志和TRACE`&lt;br/&gt;&lt;/font&gt;&lt;/div&gt;" style="verticalAlign=middle;align=center;vsdxID=4;fillColor=#5b9bd5;gradientColor=none;shape=stencil(nZBLDoAgDERP0z3SIyjew0SURgSD+Lu9kMZoXLhwN9O+tukAlrNpJg1SzDH4QW/URgNYgZTkjA4UkwJUgGXng+6DX1zLfmoymdXo17xh5zmRJ6Q42BWCfc2oJfdAr+Yv+AP9Cb7OJ3H/2JG1HNGz/84klThPVCc=);strokeColor=#c8c8c8;spacingTop=-1;spacingBottom=-1;spacingLeft=-1;spacingRight=-1;labelBackgroundColor=none;rounded=0;html=1;whiteSpace=wrap;" parent="1" vertex="1">
          <mxGeometry x="190" y="208" width="100" height="60" as="geometry" />
        </mxCell>
        <mxCell id="7" value="&lt;div style=&quot;font-size: 1px&quot;&gt;&lt;font style=&quot;font-size:11.29px;font-family:SimSun;color:#feffff;direction:ltr;letter-spacing:0px;line-height:120%;opacity:1&quot;&gt;ubusInit&lt;br/&gt;&lt;/font&gt;&lt;/div&gt;" style="verticalAlign=middle;align=center;vsdxID=5;fillColor=#5b9bd5;gradientColor=none;shape=stencil(nZBLDoAgDERP0z3SIyjew0SURgSD+Lu9kMZoXLhwN9O+tukAlrNpJg1SzDH4QW/URgNYgZTkjA4UkwJUgGXng+6DX1zLfmoymdXo17xh5zmRJ6Q42BWCfc2oJfdAr+Yv+AP9Cb7OJ3H/2JG1HNGz/84klThPVCc=);strokeColor=#c8c8c8;spacingTop=-1;spacingBottom=-1;spacingLeft=-1;spacingRight=-1;labelBackgroundColor=none;rounded=0;html=1;whiteSpace=wrap;" parent="1" vertex="1">
          <mxGeometry x="190" y="298" width="100" height="60" as="geometry" />
        </mxCell>
        <mxCell id="8" value="&lt;div style=&quot;font-size: 1px&quot;&gt;&lt;font style=&quot;font-size:11.29px;font-family:SimSun;color:#feffff;direction:ltr;letter-spacing:0px;line-height:120%;opacity:1&quot;&gt;启动ubus服务&lt;br/&gt;&lt;/font&gt;&lt;/div&gt;" style="verticalAlign=middle;align=center;vsdxID=6;fillColor=#5b9bd5;gradientColor=none;shape=stencil(nZBLDoAgDERP0z3SIyjew0SURgSD+Lu9kMZoXLhwN9O+tukAlrNpJg1SzDH4QW/URgNYgZTkjA4UkwJUgGXng+6DX1zLfmoymdXo17xh5zmRJ6Q42BWCfc2oJfdAr+Yv+AP9Cb7OJ3H/2JG1HNGz/84klThPVCc=);strokeColor=#c8c8c8;spacingTop=-1;spacingBottom=-1;spacingLeft=-1;spacingRight=-1;labelBackgroundColor=none;rounded=0;html=1;whiteSpace=wrap;" parent="1" vertex="1">
          <mxGeometry x="190" y="388" width="100" height="60" as="geometry" />
        </mxCell>
        <mxCell id="9" value="&lt;div style=&quot;font-size: 1px&quot;&gt;&lt;font style=&quot;font-size: 11.29px ; font-family: &amp;#34;simsun&amp;#34; ; color: #feffff ; direction: ltr ; letter-spacing: 0px ; line-height: 120% ; opacity: 1&quot;&gt;初始化ubus订阅事件&lt;br&gt;&lt;/font&gt;&lt;/div&gt;" style="verticalAlign=middle;align=center;vsdxID=7;fillColor=#5b9bd5;gradientColor=none;shape=stencil(nZBLDoAgDERP0z3SIyjew0SURgSD+Lu9kMZoXLhwN9O+tukAlrNpJg1SzDH4QW/URgNYgZTkjA4UkwJUgGXng+6DX1zLfmoymdXo17xh5zmRJ6Q42BWCfc2oJfdAr+Yv+AP9Cb7OJ3H/2JG1HNGz/84klThPVCc=);strokeColor=#c8c8c8;spacingTop=-1;spacingBottom=-1;spacingLeft=-1;spacingRight=-1;labelBackgroundColor=none;rounded=0;html=1;whiteSpace=wrap;" parent="1" vertex="1">
          <mxGeometry x="190" y="478" width="100" height="60" as="geometry" />
        </mxCell>
        <mxCell id="10" style="vsdxID=9;fillColor=#44749f;gradientColor=none;shape=stencil(UzV2Ls5ILEhVNTIoLinKz04tz0wpyVA1dlE1MsrMy0gtyiwBslSNXVWNndPyi1LTi/JL81Ig/IJEkEoQKze/DGRCBUSfAUiHkUElhGcK4bpBVOZk5iGpNEVVikeloQHZpsK0YlWLz1QgA+HFtMycHEgIIcujBwlQCBKcxq4A);strokeColor=#41719c;spacingTop=-1;spacingBottom=-1;spacingLeft=-1;spacingRight=-1;labelBackgroundColor=none;rounded=0;html=1;whiteSpace=wrap;" parent="1" vertex="1">
          <mxGeometry x="390" y="208" width="100" height="60" as="geometry" />
        </mxCell>
        <mxCell id="11" value="&lt;div style=&quot;font-size: 1px&quot;&gt;&lt;font style=&quot;font-size:11.29px;font-family:SimSun;color:#feffff;direction:ltr;letter-spacing:0px;line-height:120%;opacity:1&quot;&gt;是否接收到终止信号&lt;br/&gt;&lt;/font&gt;&lt;/div&gt;" style="text;vsdxID=9;fillColor=none;gradientColor=none;strokeColor=none;spacingTop=-1;spacingBottom=-1;spacingLeft=-1;spacingRight=-1;labelBackgroundColor=none;rounded=0;html=1;whiteSpace=wrap;verticalAlign=middle;align=center;;html=1;" parent="10" vertex="1">
          <mxGeometry x="8.33" y="7.5" width="83.33" height="45" as="geometry" />
        </mxCell>
        <mxCell id="12" value="&lt;div style=&quot;font-size: 1px&quot;&gt;&lt;font style=&quot;font-size:11.29px;font-family:SimSun;color:#feffff;direction:ltr;letter-spacing:0px;line-height:120%;opacity:1&quot;&gt;ubusDone&lt;br/&gt;&lt;/font&gt;&lt;/div&gt;" style="verticalAlign=middle;align=center;vsdxID=10;fillColor=#5b9bd5;gradientColor=none;shape=stencil(nZBLDoAgDERP0z3SIyjew0SURgSD+Lu9kMZoXLhwN9O+tukAlrNpJg1SzDH4QW/URgNYgZTkjA4UkwJUgGXng+6DX1zLfmoymdXo17xh5zmRJ6Q42BWCfc2oJfdAr+Yv+AP9Cb7OJ3H/2JG1HNGz/84klThPVCc=);strokeColor=#c8c8c8;spacingTop=-1;spacingBottom=-1;spacingLeft=-1;spacingRight=-1;labelBackgroundColor=none;rounded=0;html=1;whiteSpace=wrap;" parent="1" vertex="1">
          <mxGeometry x="390" y="300" width="100" height="60" as="geometry" />
        </mxCell>
        <mxCell id="13" value="&lt;div style=&quot;font-size: 1px&quot;&gt;&lt;font style=&quot;font-size:11.29px;font-family:SimSun;color:#feffff;direction:ltr;letter-spacing:0px;line-height:120%;opacity:1&quot;&gt;eelogClose&lt;br/&gt;&lt;/font&gt;&lt;/div&gt;" style="verticalAlign=middle;align=center;vsdxID=11;fillColor=#5b9bd5;gradientColor=none;shape=stencil(nZBLDoAgDERP0z3SIyjew0SURgSD+Lu9kMZoXLhwN9O+tukAlrNpJg1SzDH4QW/URgNYgZTkjA4UkwJUgGXng+6DX1zLfmoymdXo17xh5zmRJ6Q42BWCfc2oJfdAr+Yv+AP9Cb7OJ3H/2JG1HNGz/84klThPVCc=);strokeColor=#c8c8c8;spacingTop=-1;spacingBottom=-1;spacingLeft=-1;spacingRight=-1;labelBackgroundColor=none;rounded=0;html=1;whiteSpace=wrap;" parent="1" vertex="1">
          <mxGeometry x="390" y="390" width="100" height="60" as="geometry" />
        </mxCell>
        <mxCell id="14" value="&lt;div style=&quot;font-size: 1px&quot;&gt;&lt;font style=&quot;font-size:11.29px;font-family:SimSun;color:#feffff;direction:ltr;letter-spacing:0px;line-height:120%;opacity:1&quot;&gt;结束&lt;br/&gt;&lt;/font&gt;&lt;/div&gt;" style="verticalAlign=middle;align=center;vsdxID=12;fillColor=#44749f;gradientColor=none;shape=stencil(tVLLDsIgEPwajiQIMfFe638Qu22JCM2Ctv69kK0Rm9qDibeZndkXC1NV6PUATIoQ0V9gNE3smToyKY3rAU1MiKmaqar1CB36m2uIDzo7M7r6e64wUZ4UOUWKB9GdIH4irzWu8B42vRrPScNFXZzN+5mvl3qJXE8mcPRRR+Pdh2Y1dsBTE95a3c0TkBRGgKEIb6wg1/r+ssCXd/vLCgm8z9caa+n6pb48dwrRV1H1Ew==);strokeColor=#41719c;spacingTop=-1;spacingBottom=-1;spacingLeft=-1;spacingRight=-1;labelBackgroundColor=none;rounded=0;html=1;whiteSpace=wrap;" parent="1" vertex="1">
          <mxGeometry x="390" y="480" width="100" height="40" as="geometry" />
        </mxCell>
        <mxCell id="15" style="vsdxID=31;fillColor=none;gradientColor=none;strokeColor=none;spacingTop=3;spacingBottom=3;labelBackgroundColor=none;rounded=0;html=1;whiteSpace=wrap;" parent="1" vertex="1">
          <mxGeometry x="530" y="40" width="260" height="109" as="geometry" />
        </mxCell>
        <mxCell id="16" style="vsdxID=32;fillColor=#f2f2f2;gradientColor=none;shape=stencil(3ZLdDoIwDIWfZpeQsg2m1/68xyIDFicjZSq+vSP1B0zUxEvv2p6v20l6mFj1je4M49AH9HtztmVomFgzzm3bGLQhVkxsmFhVHk2N/tiW1Hd6JMfq4E/jCwPtwbjB4UJdBtRvCXW2naB38SdY8jQv3uNfYI27qOINlnm2kHlRAFegIJUZLePDl5JC5QuAJVeiSJeS9C9fwZDowfYJ+qCD9e2Mdhprk0QbSeV0PZP6szHdZJz9hfFP53k5fCye6aqscxTOqf6axjiiJIvNFQ==);strokeColor=#939393;labelBackgroundColor=none;rounded=0;html=1;whiteSpace=wrap;" parent="15" vertex="1">
          <mxGeometry width="260" height="109" as="geometry" />
        </mxCell>
        <mxCell id="17" style="vsdxID=33;fillColor=#5b9bd5;gradientColor=none;shape=stencil(zZJNDsIgEIVPw5IE4Qi1LnuHiYWWiNAMaNvbC5lGazVduHI3P9/Mm0weU1XsYdBMipgwXPRo29QzdWRSWt9rtClHTNVMVSag7jDcfEv5AIUs0TXcy4aJ5kSZkGKm7CAoPxEKeM49XNAGGoJx3hR2d4mJw2Qjx5Ag2eDfWAfYaZ51uHHQLYPUiqPWw0f57y9z1q/e+5T6/uB9eAf9EdzI5+DlC2OdI1ut+1sf5RJ5UNUP);strokeColor=#939393;labelBackgroundColor=none;rounded=0;html=1;whiteSpace=wrap;" parent="15" vertex="1">
          <mxGeometry width="260" height="46" as="geometry" />
        </mxCell>
        <mxCell id="18" value="&lt;div style=&quot;font-size: 1px&quot;&gt;&lt;font style=&quot;font-size:16.93px;font-family:SimSun;color:#feffff;direction:ltr;letter-spacing:0px;line-height:120%;opacity:1&quot;&gt;mqagent服务&lt;br/&gt;&lt;/font&gt;&lt;/div&gt;" style="text;vsdxID=31;fillColor=none;gradientColor=none;strokeColor=none;spacingTop=3;spacingBottom=3;labelBackgroundColor=none;rounded=0;html=1;whiteSpace=wrap;verticalAlign=middle;align=left;;html=1;" parent="15" vertex="1">
          <mxGeometry y="-0.35" width="260" height="46.54" as="geometry" />
        </mxCell>
        <mxCell id="19" value="&lt;div style=&quot;font-size: 1px&quot;&gt;&lt;font style=&quot;font-size:14.11px;font-family:SimSun;color:#939393;direction:ltr;letter-spacing:0px;line-height:120%;opacity:1&quot;&gt;-name : string = mqagent&lt;br/&gt;&lt;/font&gt;&lt;/div&gt;" style="verticalAlign=middle;align=left;vsdxID=36;fillColor=#5b9bd5;gradientColor=none;fillOpacity=0;shape=stencil(nZBLDoAgDERP0z3SIyjew0SURgSD+Lu9kMZoXLhwN9N5bdMClrNpJg1SzDH4QW/URgNYgZTkjA4UkwJUgGXng+6DX1zLfmoymdXo1zxh5z6RO6Q42BWCfc2oJfdAr/AX/IH+BF/rk7hv7MjaZ/L+RirxJ1Gd);strokeColor=#939393;spacingTop=-3;spacingBottom=-3;spacingLeft=3;spacingRight=-3;labelBackgroundColor=none;rounded=0;html=1;whiteSpace=wrap;" parent="1" vertex="1">
          <mxGeometry x="534" y="90" width="252" height="16" as="geometry" />
        </mxCell>
        <mxCell id="20" style="vsdxID=37;fillColor=#ffffff;gradientColor=none;shape=stencil(fY9LDoAgDERP0z3SeALUe5gI0ohgEH+3F9KFxoW7mfa1nQKq1faLBinWFMOkDxqSBWxASvJWR0pZAbaAyoSoxxg2P7Bf+kIWNYe9bDh5TpQJKS52NduOSUf+RVbij83iOWHIOU747n8j5RK/g+0N);dashed=1;dashPattern=2.00 2.00;strokeColor=#6cb9ff;strokeWidth=2;labelBackgroundColor=none;rounded=0;html=1;whiteSpace=wrap;" parent="1" vertex="1">
          <mxGeometry x="534" y="107" width="252" height="4" as="geometry" />
        </mxCell>
        <mxCell id="21" value="&lt;div style=&quot;font-size: 1px&quot;&gt;&lt;font style=&quot;font-size:14.11px;font-family:SimSun;color:#939393;direction:ltr;letter-spacing:0px;line-height:120%;opacity:1&quot;&gt;-ping&lt;br/&gt;-info&lt;br/&gt;&lt;/font&gt;&lt;/div&gt;" style="verticalAlign=middle;align=left;vsdxID=38;fillColor=#5b9bd5;gradientColor=none;fillOpacity=0;shape=stencil(nZBLDoAgDERP0z3SIyjew0SURgSD+Lu9kMZoXLhwN9N5bdMClrNpJg1SzDH4QW/URgNYgZTkjA4UkwJUgGXng+6DX1zLfmoymdXo1zxh5z6RO6Q42BWCfc2oJfdAr/AX/IH+BF/rk7hv7MjaZ/L+RirxJ1Gd);strokeColor=#939393;spacingTop=-3;spacingBottom=-3;spacingLeft=3;spacingRight=-3;labelBackgroundColor=none;rounded=0;html=1;whiteSpace=wrap;" parent="1" vertex="1">
          <mxGeometry x="534" y="111" width="252" height="33" as="geometry" />
        </mxCell>
        <mxCell id="22" style="vsdxID=39;fillColor=none;gradientColor=none;strokeColor=none;spacingTop=3;spacingBottom=3;labelBackgroundColor=none;rounded=0;html=1;whiteSpace=wrap;" parent="1" vertex="1">
          <mxGeometry x="530" y="180" width="260" height="160" as="geometry" />
        </mxCell>
        <mxCell id="23" style="vsdxID=40;fillColor=#f2f2f2;gradientColor=none;shape=stencil(1ZLPDoIwDMafZseZuSUmnhGPvEMjAxbnRsoUeHu3FCNilMSbt7bfr+3+fExlXQOtZlJ0Af1Z96YMDVMHJqVxjUYTYsRUzlRWedQ1+qsrKW8hkSm6+FuaMFCfSB1SjJRtBeVHQq1xM/Qh/gTL/UbsPuMrMOApqjjBBRSE47gorEwTA4fBdBx9gGC8e6EtYK153MQrC/V0C5K6Xuv2rfwHZ/v2yIvvi8HTI5Wxliw215eeiiXyo8rv);strokeColor=#939393;labelBackgroundColor=none;rounded=0;html=1;whiteSpace=wrap;" parent="22" vertex="1">
          <mxGeometry width="260" height="160" as="geometry" />
        </mxCell>
        <mxCell id="24" style="vsdxID=41;fillColor=#5b9bd5;gradientColor=none;shape=stencil(zZJNDsIgEIVPw5IE4Qi1LnuHiYWWiNAMaNvbC5lGazVduHI3P9/Mm0weU1XsYdBMipgwXPRo29QzdWRSWt9rtClHTNVMVSag7jDcfEv5AIUs0TXcy4aJ5kSZkGKm7CAoPxEKeM49XNAGGoJx3hR2d4mJw2Qjx5Ag2eDfWAfYaZ51uHHQLYPUiqPWw0f57y9z1q/e+5T6/uB9eAf9EdzI5+DlC2OdI1ut+1sf5RJ5UNUP);strokeColor=#939393;labelBackgroundColor=none;rounded=0;html=1;whiteSpace=wrap;" parent="22" vertex="1">
          <mxGeometry width="260" height="46" as="geometry" />
        </mxCell>
        <mxCell id="25" value="&lt;div style=&quot;font-size: 1px&quot;&gt;&lt;font style=&quot;font-size:16.93px;font-family:SimSun;color:#feffff;direction:ltr;letter-spacing:0px;line-height:120%;opacity:1&quot;&gt;ubus发布&lt;br/&gt;&lt;/font&gt;&lt;/div&gt;" style="text;vsdxID=39;fillColor=none;gradientColor=none;strokeColor=none;spacingTop=3;spacingBottom=3;labelBackgroundColor=none;rounded=0;html=1;whiteSpace=wrap;verticalAlign=middle;align=left;;html=1;" parent="22" vertex="1">
          <mxGeometry y="-0.15" width="260" height="46.54" as="geometry" />
        </mxCell>
        <mxCell id="26" value="&lt;div style=&quot;font-size: 1px&quot;&gt;&lt;font style=&quot;font-size:14.11px;font-family:SimSun;color:#939393;direction:ltr;letter-spacing:0px;line-height:120%;opacity:1&quot;&gt;-&lt;br/&gt;&lt;/font&gt;&lt;/div&gt;" style="verticalAlign=middle;align=left;vsdxID=44;fillColor=#5b9bd5;gradientColor=none;fillOpacity=0;shape=stencil(nZBLDoAgDERP0z3SIyjew0SURgSD+Lu9kMZoXLhwN9N5bdMClrNpJg1SzDH4QW/URgNYgZTkjA4UkwJUgGXng+6DX1zLfmoymdXo1zxh5z6RO6Q42BWCfc2oJfdAr/AX/IH+BF/rk7hv7MjaZ/L+RirxJ1Gd);strokeColor=#939393;spacingTop=-3;spacingBottom=-3;spacingLeft=3;spacingRight=-3;labelBackgroundColor=none;rounded=0;html=1;whiteSpace=wrap;" parent="1" vertex="1">
          <mxGeometry x="534" y="230" width="252" height="16" as="geometry" />
        </mxCell>
        <mxCell id="27" style="vsdxID=45;fillColor=#ffffff;gradientColor=none;shape=stencil(fY9LDoAgDERP0z3SeALUe5gI0ohgEH+3F9KFxoW7mfa1nQKq1faLBinWFMOkDxqSBWxASvJWR0pZAbaAyoSoxxg2P7Bf+kIWNYe9bDh5TpQJKS52NduOSUf+RVbij83iOWHIOU747n8j5RK/g+0N);dashed=1;dashPattern=2.00 2.00;strokeColor=#6cb9ff;strokeWidth=2;labelBackgroundColor=none;rounded=0;html=1;whiteSpace=wrap;" parent="1" vertex="1">
          <mxGeometry x="534" y="247" width="252" height="4" as="geometry" />
        </mxCell>
        <mxCell id="28" value="&lt;div style=&quot;font-size: 1px&quot;&gt;&lt;font style=&quot;font-size:14.11px;font-family:SimSun;color:#939393;direction:ltr;letter-spacing:0px;line-height:120%;opacity:1&quot;&gt;-backboard : &lt;/font&gt;&lt;font style=&quot;font-size:14.11px;font-family:Themed;color:#939393;direction:ltr;letter-spacing:0px;line-height:120%;opacity:1&quot;&gt;publishBackboardInfo&lt;/font&gt;&lt;font style=&quot;font-size:14.11px;font-family:Themed;color:#939393;direction:ltr;letter-spacing:0px;line-height:120%;opacity:1&quot;&gt;()&lt;br/&gt; &lt;/font&gt;&lt;font style=&quot;font-size:14.11px;font-family:Themed;color:#939393;direction:ltr;letter-spacing:0px;line-height:120%;opacity:1&quot;&gt;publishBackboardState&lt;/font&gt;&lt;font style=&quot;font-size:14.11px;font-family:Themed;color:#939393;direction:ltr;letter-spacing:0px;line-height:120%;opacity:1&quot;&gt;()&lt;br/&gt;&lt;/font&gt;&lt;font style=&quot;font-size:14.11px;font-family:Themed;color:#939393;direction:ltr;letter-spacing:0px;line-height:120%;opacity:1&quot;&gt;-system : &lt;/font&gt;&lt;font style=&quot;font-size:14.11px;font-family:Themed;color:#939393;direction:ltr;letter-spacing:0px;line-height:120%;opacity:1&quot;&gt;publishSystemState&lt;/font&gt;&lt;font style=&quot;font-size:14.11px;font-family:Themed;color:#939393;direction:ltr;letter-spacing:0px;line-height:120%;opacity:1&quot;&gt;()&lt;br/&gt; &lt;/font&gt;&lt;font style=&quot;font-size:14.11px;font-family:Themed;color:#939393;direction:ltr;letter-spacing:0px;line-height:120%;opacity:1&quot;&gt;publishSystemInfo&lt;/font&gt;&lt;font style=&quot;font-size:14.11px;font-family:Themed;color:#939393;direction:ltr;letter-spacing:0px;line-height:120%;opacity:1&quot;&gt;()&lt;br/&gt;-switch : &lt;/font&gt;&lt;font style=&quot;font-size:14.11px;font-family:Themed;color:#939393;direction:ltr;letter-spacing:0px;line-height:120%;opacity:1&quot;&gt;publishSwitchState&lt;/font&gt;&lt;font style=&quot;font-size:14.11px;font-family:Themed;color:#939393;direction:ltr;letter-spacing:0px;line-height:120%;opacity:1&quot;&gt;()&lt;br/&gt;&lt;/font&gt;&lt;/div&gt;" style="verticalAlign=middle;align=left;vsdxID=46;fillColor=#5b9bd5;gradientColor=none;fillOpacity=0;shape=stencil(nZBLDoAgDERP0z3SIyjew0SURgSD+Lu9kMZoXLhwN9N5bdMClrNpJg1SzDH4QW/URgNYgZTkjA4UkwJUgGXng+6DX1zLfmoymdXo1zxh5z6RO6Q42BWCfc2oJfdAr/AX/IH+BF/rk7hv7MjaZ/L+RirxJ1Gd);strokeColor=#939393;spacingTop=-3;spacingBottom=-3;spacingLeft=3;spacingRight=-3;labelBackgroundColor=none;rounded=0;html=1;whiteSpace=wrap;" parent="1" vertex="1">
          <mxGeometry x="534" y="251" width="252" height="84" as="geometry" />
        </mxCell>
        <mxCell id="29" value="&lt;div style=&quot;font-size: 1px&quot;&gt;&lt;font style=&quot;font-size:11.29px;font-family:SimSun;color:#feffff;direction:ltr;letter-spacing:0px;line-height:120%;opacity:1&quot;&gt;ubusRun&lt;br/&gt;&lt;/font&gt;&lt;/div&gt;" style="verticalAlign=middle;align=center;vsdxID=48;fillColor=#5b9bd5;gradientColor=none;shape=stencil(nZBLDoAgDERP0z3SIyjew0SURgSD+Lu9kMZoXLhwN9O+tukAlrNpJg1SzDH4QW/URgNYgZTkjA4UkwJUgGXng+6DX1zLfmoymdXo17xh5zmRJ6Q42BWCfc2oJfdAr+Yv+AP9Cb7OJ3H/2JG1HNGz/84klThPVCc=);strokeColor=#c8c8c8;spacingTop=-1;spacingBottom=-1;spacingLeft=-1;spacingRight=-1;labelBackgroundColor=none;rounded=0;html=1;whiteSpace=wrap;" parent="1" vertex="1">
          <mxGeometry x="390" y="118" width="100" height="60" as="geometry" />
        </mxCell>
        <mxCell id="30" value="&lt;div style=&quot;font-size: 1px&quot;&gt;&lt;font style=&quot;font-size:11.29px;font-family:SimSun;color:#4f88bb;direction:ltr;letter-spacing:0px;line-height:120%;opacity:1&quot;&gt;初始化MQTT代理实例&lt;br/&gt;(agentInit)&lt;br/&gt;&lt;/font&gt;&lt;/div&gt;" style="verticalAlign=middle;align=center;vsdxID=50;fillColor=#feffff;gradientColor=#6cb9ff;shape=stencil(nZJJDsMgDEVP4z2xN9mn6T0ihRSrFCJCp9sHZHVComqz+8bPNt8A1C1mmDWgWmLwR33lMRqgHSCyMzpwTAqoB+omH/Qh+LMbJZ6HTGZ18pfc4SZ1KlegukvUKIn3glp2b+gjuQn+gm4Ei/FJvDxObK2s6JmvLaDBP0xh/aqfXdv2964FW3dVOEqifOV0JD+E+hU=);strokeColor=#4f88bb;spacingTop=-1;spacingBottom=-1;spacingLeft=-1;spacingRight=-1;labelBackgroundColor=none;rounded=0;html=1;whiteSpace=wrap;" parent="1" vertex="1">
          <mxGeometry x="830" y="40" width="100" height="60" as="geometry" />
        </mxCell>
        <mxCell id="31" value="&lt;div style=&quot;font-size: 1px&quot;&gt;&lt;font style=&quot;font-size:11.29px;font-family:SimSun;color:#4f88bb;direction:ltr;letter-spacing:0px;line-height:120%;opacity:1&quot;&gt;初始化MQTT代理实例&lt;br/&gt;agentInit()&lt;br/&gt;&lt;/font&gt;&lt;/div&gt;" style="verticalAlign=middle;align=center;vsdxID=53;fillColor=#feffff;gradientColor=#6cb9ff;shape=stencil(nZJJDsMgDEVP4z2xN9mn6T0ihRSrFCJCp9sHZHVComqz+8bPNt8A1C1mmDWgWmLwR33lMRqgHSCyMzpwTAqoB+omH/Qh+LMbJZ6HTGZ18pfc4SZ1KlegukvUKIn3glp2b+gjuQn+gm4Ei/FJvDxObK2s6JmvLaDBP0xh/aqfXdv2964FW3dVOEqifOV0JD+E+hU=);strokeColor=#4f88bb;spacingTop=-1;spacingBottom=-1;spacingLeft=-1;spacingRight=-1;labelBackgroundColor=none;rounded=0;html=1;whiteSpace=wrap;" parent="1" vertex="1">
          <mxGeometry x="190" y="568" width="100" height="60" as="geometry" />
        </mxCell>
        <mxCell id="32" value="&lt;div style=&quot;font-size: 1px&quot;&gt;&lt;font style=&quot;font-size:11.29px;font-family:SimSun;color:#feffff;direction:ltr;letter-spacing:0px;line-height:120%;opacity:1&quot;&gt;实例化mqttAgent对象&lt;br/&gt;&lt;/font&gt;&lt;/div&gt;" style="verticalAlign=middle;align=center;vsdxID=57;fillColor=#5b9bd5;gradientColor=none;shape=stencil(nZBLDoAgDERP0z3SIyjew0SURgSD+Lu9kMZoXLhwN9O+tukAlrNpJg1SzDH4QW/URgNYgZTkjA4UkwJUgGXng+6DX1zLfmoymdXo17xh5zmRJ6Q42BWCfc2oJfdAr+Yv+AP9Cb7OJ3H/2JG1HNGz/84klThPVCc=);strokeColor=#c8c8c8;spacingTop=-1;spacingBottom=-1;spacingLeft=-1;spacingRight=-1;labelBackgroundColor=none;rounded=0;html=1;whiteSpace=wrap;" parent="1" vertex="1">
          <mxGeometry x="830" y="130" width="100" height="60" as="geometry" />
        </mxCell>
        <mxCell id="33" value="&lt;div style=&quot;font-size: 1px&quot;&gt;&lt;font style=&quot;font-size:11.29px;font-family:SimSun;color:#feffff;direction:ltr;letter-spacing:0px;line-height:120%;opacity:1&quot;&gt;配置连接参数&lt;br/&gt;&lt;/font&gt;&lt;/div&gt;" style="verticalAlign=middle;align=center;vsdxID=58;fillColor=#5b9bd5;gradientColor=none;shape=stencil(nZBLDoAgDERP0z3SIyjew0SURgSD+Lu9kMZoXLhwN9O+tukAlrNpJg1SzDH4QW/URgNYgZTkjA4UkwJUgGXng+6DX1zLfmoymdXo17xh5zmRJ6Q42BWCfc2oJfdAr+Yv+AP9Cb7OJ3H/2JG1HNGz/84klThPVCc=);strokeColor=#c8c8c8;spacingTop=-1;spacingBottom=-1;spacingLeft=-1;spacingRight=-1;labelBackgroundColor=none;rounded=0;html=1;whiteSpace=wrap;" parent="1" vertex="1">
          <mxGeometry x="830" y="220" width="100" height="60" as="geometry" />
        </mxCell>
        <mxCell id="34" value="&lt;div style=&quot;font-size: 1px&quot;&gt;&lt;font style=&quot;font-size:11.29px;font-family:SimSun;color:#feffff;direction:ltr;letter-spacing:0px;line-height:120%;opacity:1&quot;&gt;生成客户端ID&lt;br/&gt;&lt;/font&gt;&lt;/div&gt;" style="verticalAlign=middle;align=center;vsdxID=59;fillColor=#5b9bd5;gradientColor=none;shape=stencil(nZBLDoAgDERP0z3SIyjew0SURgSD+Lu9kMZoXLhwN9O+tukAlrNpJg1SzDH4QW/URgNYgZTkjA4UkwJUgGXng+6DX1zLfmoymdXo17xh5zmRJ6Q42BWCfc2oJfdAr+Yv+AP9Cb7OJ3H/2JG1HNGz/84klThPVCc=);strokeColor=#c8c8c8;spacingTop=-1;spacingBottom=-1;spacingLeft=-1;spacingRight=-1;labelBackgroundColor=none;rounded=0;html=1;whiteSpace=wrap;" parent="1" vertex="1">
          <mxGeometry x="830" y="310" width="100" height="60" as="geometry" />
        </mxCell>
        <mxCell id="35" value="&lt;div style=&quot;font-size: 1px&quot;&gt;&lt;font style=&quot;font-size:11.29px;font-family:SimSun;color:#feffff;direction:ltr;letter-spacing:0px;line-height:120%;opacity:1&quot;&gt;配置当前服务使用的主题&lt;br/&gt;&lt;/font&gt;&lt;font style=&quot;font-size:11.29px;font-family:Themed;color:#feffff;direction:ltr;letter-spacing:0px;line-height:120%;opacity:1&quot;&gt;fillServiceTopics&lt;br/&gt;&lt;/font&gt;&lt;/div&gt;" style="verticalAlign=middle;align=center;vsdxID=60;fillColor=#5b9bd5;gradientColor=none;shape=stencil(nZBLDoAgDERP0z3SIyjew0SURgSD+Lu9kMZoXLhwN9O+tukAlrNpJg1SzDH4QW/URgNYgZTkjA4UkwJUgGXng+6DX1zLfmoymdXo17xh5zmRJ6Q42BWCfc2oJfdAr+Yv+AP9Cb7OJ3H/2JG1HNGz/84klThPVCc=);strokeColor=#c8c8c8;spacingTop=-1;spacingBottom=-1;spacingLeft=-1;spacingRight=-1;labelBackgroundColor=none;rounded=0;html=1;whiteSpace=wrap;" parent="1" vertex="1">
          <mxGeometry x="830" y="400" width="100" height="60" as="geometry" />
        </mxCell>
        <mxCell id="36" value="&lt;div style=&quot;font-size: 1px&quot;&gt;&lt;font style=&quot;font-size:11.29px;font-family:SimSun;color:#feffff;direction:ltr;letter-spacing:0px;line-height:120%;opacity:1&quot;&gt;创建一个mqtt客户端&lt;br/&gt;&lt;/font&gt;&lt;font style=&quot;font-size:11.29px;font-family:Themed;color:#feffff;direction:ltr;letter-spacing:0px;line-height:120%;opacity:1&quot;&gt;mqttClientNew&lt;br/&gt;&lt;/font&gt;&lt;/div&gt;" style="verticalAlign=middle;align=center;vsdxID=61;fillColor=#5b9bd5;gradientColor=none;shape=stencil(nZBLDoAgDERP0z3SIyjew0SURgSD+Lu9kMZoXLhwN9O+tukAlrNpJg1SzDH4QW/URgNYgZTkjA4UkwJUgGXng+6DX1zLfmoymdXo17xh5zmRJ6Q42BWCfc2oJfdAr+Yv+AP9Cb7OJ3H/2JG1HNGz/84klThPVCc=);strokeColor=#c8c8c8;spacingTop=-1;spacingBottom=-1;spacingLeft=-1;spacingRight=-1;labelBackgroundColor=none;rounded=0;html=1;whiteSpace=wrap;" parent="1" vertex="1">
          <mxGeometry x="830" y="490" width="100" height="60" as="geometry" />
        </mxCell>
        <mxCell id="37" value="&lt;div style=&quot;font-size: 1px&quot;&gt;&lt;font style=&quot;font-size:11.29px;font-family:SimSun;color:#feffff;direction:ltr;letter-spacing:0px;line-height:120%;opacity:1&quot;&gt;设置重连定时10s&lt;br/&gt;&lt;/font&gt;&lt;/div&gt;" style="verticalAlign=middle;align=center;vsdxID=62;fillColor=#5b9bd5;gradientColor=none;shape=stencil(nZBLDoAgDERP0z3SIyjew0SURgSD+Lu9kMZoXLhwN9O+tukAlrNpJg1SzDH4QW/URgNYgZTkjA4UkwJUgGXng+6DX1zLfmoymdXo17xh5zmRJ6Q42BWCfc2oJfdAr+Yv+AP9Cb7OJ3H/2JG1HNGz/84klThPVCc=);strokeColor=#c8c8c8;spacingTop=-1;spacingBottom=-1;spacingLeft=-1;spacingRight=-1;labelBackgroundColor=none;rounded=0;html=1;whiteSpace=wrap;" parent="1" vertex="1">
          <mxGeometry x="830" y="580" width="100" height="60" as="geometry" />
        </mxCell>
        <mxCell id="38" value="&lt;div style=&quot;font-size: 1px&quot;&gt;&lt;font style=&quot;font-size:11.29px;font-family:SimSun;color:#feffff;direction:ltr;letter-spacing:0px;line-height:120%;opacity:1&quot;&gt;启动连接到mqtt broker&lt;br/&gt;&lt;/font&gt;&lt;font style=&quot;font-size:11.29px;font-family:Themed;color:#feffff;direction:ltr;letter-spacing:0px;line-height:120%;opacity:1&quot;&gt;mqttClientStart&lt;br/&gt;&lt;/font&gt;&lt;/div&gt;" style="verticalAlign=middle;align=center;vsdxID=63;fillColor=#5b9bd5;gradientColor=none;shape=stencil(nZBLDoAgDERP0z3SIyjew0SURgSD+Lu9kMZoXLhwN9O+tukAlrNpJg1SzDH4QW/URgNYgZTkjA4UkwJUgGXng+6DX1zLfmoymdXo17xh5zmRJ6Q42BWCfc2oJfdAr+Yv+AP9Cb7OJ3H/2JG1HNGz/84klThPVCc=);strokeColor=#c8c8c8;spacingTop=-1;spacingBottom=-1;spacingLeft=-1;spacingRight=-1;labelBackgroundColor=none;rounded=0;html=1;whiteSpace=wrap;" parent="1" vertex="1">
          <mxGeometry x="830" y="670" width="100" height="60" as="geometry" />
        </mxCell>
        <mxCell id="39" value="&lt;div style=&quot;font-size: 1px&quot;&gt;&lt;font style=&quot;font-size:11.29px;font-family:SimSun;color:#feffff;direction:ltr;letter-spacing:0px;line-height:120%;opacity:1&quot;&gt;订阅告警消息&lt;br/&gt;&lt;/font&gt;&lt;font style=&quot;font-size:11.29px;font-family:Themed;color:#feffff;direction:ltr;letter-spacing:0px;line-height:120%;opacity:1&quot;&gt;initAlarmSubscriber&lt;br/&gt;&lt;/font&gt;&lt;/div&gt;" style="verticalAlign=middle;align=center;vsdxID=64;fillColor=#5b9bd5;gradientColor=none;shape=stencil(nZBLDoAgDERP0z3SIyjew0SURgSD+Lu9kMZoXLhwN9O+tukAlrNpJg1SzDH4QW/URgNYgZTkjA4UkwJUgGXng+6DX1zLfmoymdXo17xh5zmRJ6Q42BWCfc2oJfdAr+Yv+AP9Cb7OJ3H/2JG1HNGz/84klThPVCc=);strokeColor=#c8c8c8;spacingTop=-1;spacingBottom=-1;spacingLeft=-1;spacingRight=-1;labelBackgroundColor=none;rounded=0;html=1;whiteSpace=wrap;" parent="1" vertex="1">
          <mxGeometry x="980" y="130" width="100" height="60" as="geometry" />
        </mxCell>
        <mxCell id="40" value="&lt;div style=&quot;font-size: 1px&quot;&gt;&lt;font style=&quot;font-size:11.29px;font-family:SimSun;color:#feffff;direction:ltr;letter-spacing:0px;line-height:120%;opacity:1&quot;&gt;返回&lt;br/&gt;&lt;/font&gt;&lt;/div&gt;" style="verticalAlign=middle;align=center;vsdxID=65;fillColor=#44749f;gradientColor=none;shape=stencil(tVLLDsIgEPwajiQIMfFe638Qu22JCM2Ctv69kK0Rm9qDibeZndkXC1NV6PUATIoQ0V9gNE3smToyKY3rAU1MiKmaqar1CB36m2uIDzo7M7r6e64wUZ4UOUWKB9GdIH4irzWu8B42vRrPScNFXZzN+5mvl3qJXE8mcPRRR+Pdh2Y1dsBTE95a3c0TkBRGgKEIb6wg1/r+ssCXd/vLCgm8z9caa+n6pb48dwrRV1H1Ew==);strokeColor=#41719c;spacingTop=-1;spacingBottom=-1;spacingLeft=-1;spacingRight=-1;labelBackgroundColor=none;rounded=0;html=1;whiteSpace=wrap;" parent="1" vertex="1">
          <mxGeometry x="980" y="220" width="100" height="40" as="geometry" />
        </mxCell>
        <mxCell id="41" value="&lt;div style=&quot;font-size: 1px&quot;&gt;&lt;font style=&quot;font-size:11.29px;font-family:SimSun;color:#feffff;direction:ltr;letter-spacing:0px;line-height:120%;opacity:1&quot;&gt;alarmEventHandle&lt;br/&gt;&lt;/font&gt;&lt;/div&gt;" style="verticalAlign=middle;align=center;vsdxID=66;fillColor=#5b9bd5;gradientColor=none;shape=stencil(nZBLDoAgDERP0z3SIyjew0SURgSD+Lu9kMZoXLhwN9O+tukAlrNpJg1SzDH4QW/URgNYgZTkjA4UkwJUgGXng+6DX1zLfmoymdXo17xh5zmRJ6Q42BWCfc2oJfdAr+Yv+AP9Cb7OJ3H/2JG1HNGz/84klThPVCc=);strokeColor=#c8c8c8;spacingTop=-1;spacingBottom=-1;spacingLeft=-1;spacingRight=-1;labelBackgroundColor=none;rounded=0;html=1;whiteSpace=wrap;" parent="1" vertex="1">
          <mxGeometry x="1130" y="130" width="100" height="60" as="geometry" />
        </mxCell>
        <mxCell id="42" value="&lt;div style=&quot;font-size: 1px&quot;&gt;&lt;font style=&quot;font-size:11.29px;font-family:SimSun;color:#feffff;direction:ltr;letter-spacing:0px;line-height:120%;opacity:1&quot;&gt;发送告警&lt;br/&gt;&lt;/font&gt;&lt;font style=&quot;font-size:11.29px;font-family:Themed;color:#feffff;direction:ltr;letter-spacing:0px;line-height:120%;opacity:1&quot;&gt;serviceApiAlarm&lt;br/&gt;&lt;/font&gt;&lt;/div&gt;" style="verticalAlign=middle;align=center;vsdxID=67;fillColor=#5b9bd5;gradientColor=none;shape=stencil(nZBLDoAgDERP0z3SIyjew0SURgSD+Lu9kMZoXLhwN9O+tukAlrNpJg1SzDH4QW/URgNYgZTkjA4UkwJUgGXng+6DX1zLfmoymdXo17xh5zmRJ6Q42BWCfc2oJfdAr+Yv+AP9Cb7OJ3H/2JG1HNGz/84klThPVCc=);strokeColor=#c8c8c8;spacingTop=-1;spacingBottom=-1;spacingLeft=-1;spacingRight=-1;labelBackgroundColor=none;rounded=0;html=1;whiteSpace=wrap;" parent="1" vertex="1">
          <mxGeometry x="1280" y="130" width="100" height="60" as="geometry" />
        </mxCell>
        <mxCell id="43" value="&lt;div style=&quot;font-size: 1px&quot;&gt;&lt;font style=&quot;font-size:11.29px;font-family:SimSun;color:#feffff;direction:ltr;letter-spacing:0px;line-height:120%;opacity:1&quot;&gt;alarmHub&lt;br/&gt;ubus_notify()&lt;br/&gt;&lt;/font&gt;&lt;/div&gt;" style="verticalAlign=middle;align=center;vsdxID=80;fillColor=#5b9bd5;gradientColor=none;shape=stencil(nZBLDoAgDERP0z3SIyjew0SURgSD+Lu9kMZoXLhwN9O+tukAlrNpJg1SzDH4QW/URgNYgZTkjA4UkwJUgGXng+6DX1zLfmoymdXo17xh5zmRJ6Q42BWCfc2oJfdAr+Yv+AP9Cb7OJ3H/2JG1HNGz/84klThPVCc=);strokeColor=#c8c8c8;spacingTop=-1;spacingBottom=-1;spacingLeft=-1;spacingRight=-1;labelBackgroundColor=none;rounded=0;html=1;whiteSpace=wrap;" parent="1" vertex="1">
          <mxGeometry x="1060" y="30" width="100" height="60" as="geometry" />
        </mxCell>
        <mxCell id="44" value="&lt;div style=&quot;font-size: 1px&quot;&gt;&lt;p style=&quot;align:left;margin-left:0;margin-right:0;margin-top:0px;margin-bottom:0px;text-indent:0;valign:top;direction:ltr;&quot;&gt;&lt;font style=&quot;font-size:11.29px;font-family:SimSun;color:#4f88bb;direction:ltr;letter-spacing:0px;line-height:120%;opacity:1&quot;&gt;ubus发布是主动上报，告警和状态变化都可以通过这种方式上报，&lt;br/&gt;&lt;br/&gt;还有一个轮询线程，通过invoke  &lt;/font&gt;&lt;font style=&quot;font-size:11.29px;font-family:Themed;color:#4f88bb;direction:ltr;letter-spacing:0px;line-height:120%;opacity:1&quot;&gt;updateSubscribe&lt;/font&gt;&lt;font style=&quot;font-size:11.29px;font-family:Themed;color:#4f88bb;direction:ltr;letter-spacing:0px;line-height:120%;opacity:1&quot;&gt;对象，通知需要上报状态的程序执行一次ubus发布。&lt;br/&gt;&lt;/font&gt;&lt;/p&gt;&lt;/div&gt;" style="verticalAlign=top;align=left;vsdxID=82;fillColor=#feffff;gradientColor=#6cb9ff;shape=stencil(tZLBDoMgDIafhiMGQed2du49yEQlY2AKm+7tB8Nk6uLFZLf279f2JxSx0na8F4gS68DcxCBr1yF2RpRK3QmQzkeIVYiVjQHRgnnoOuY9D2SI7uYZJoyxj4QOSl4xOxZJ/hEukVVSb7JkG0zJbnTtgMPVF2GiszzJaORhaijy5HCK0gTlGxPJiPkoLQbjuJNGLx6lOLQC+224UbxdlOwgRP8j7/f3Z3vp3J4Pvj/fSKXi4czr60vxUrwyVr0B);strokeColor=#4f88bb;spacingTop=-1;spacingBottom=-1;spacingLeft=-1;spacingRight=-1;labelBackgroundColor=none;rounded=0;html=1;whiteSpace=wrap;" parent="1" vertex="1">
          <mxGeometry x="530" y="390" width="260" height="156" as="geometry" />
        </mxCell>
        <mxCell id="45" value="&lt;div style=&quot;font-size: 1px&quot;&gt;&lt;p style=&quot;align:left;margin-left:0;margin-right:0;margin-top:0px;margin-bottom:0px;text-indent:0;valign:top;direction:ltr;&quot;&gt;&lt;font style=&quot;font-size:11.29px;font-family:SimSun;color:#4f88bb;direction:ltr;letter-spacing:0px;line-height:120%;opacity:1&quot;&gt;ubus 发布，将状态信息发布给订阅者mqagent，mqagent再调用handle处理，通过serviceApiReport 发布上报到mqtt服务器，mqtt服务器发布给所有订阅主题者&lt;br/&gt;&lt;/font&gt;&lt;/p&gt;&lt;/div&gt;" style="verticalAlign=top;align=left;vsdxID=83;fillColor=#feffff;gradientColor=#6cb9ff;shape=stencil(tZLBDoMgDIafhiMGQed2du49yEQlY2AKm+7tB8Nk6uLFZLf279f2JxSx0na8F4gS68DcxCBr1yF2RpRK3QmQzkeIVYiVjQHRgnnoOuY9D2SI7uYZJoyxj4QOSl4xOxZJ/hEukVVSb7JkG0zJbnTtgMPVF2GiszzJaORhaijy5HCK0gTlGxPJiPkoLQbjuJNGLx6lOLQC+224UbxdlOwgRP8j7/f3Z3vp3J4Pvj/fSKXi4czr60vxUrwyVr0B);strokeColor=#4f88bb;spacingTop=-1;spacingBottom=-1;spacingLeft=-1;spacingRight=-1;labelBackgroundColor=none;rounded=0;html=1;whiteSpace=wrap;" parent="1" vertex="1">
          <mxGeometry x="530" y="595" width="260" height="156" as="geometry" />
        </mxCell>
        <mxCell id="Hj2xUz1iScLYxk9iozRd-70" value="mqtt 平台" style="rounded=0;whiteSpace=wrap;html=1;" vertex="1" parent="1">
          <mxGeometry x="640" y="850" width="120" height="60" as="geometry" />
        </mxCell>
        <mxCell id="Hj2xUz1iScLYxk9iozRd-71" value="mqagent" style="rounded=0;whiteSpace=wrap;html=1;" vertex="1" parent="1">
          <mxGeometry x="380" y="850" width="120" height="60" as="geometry" />
        </mxCell>
        <mxCell id="Hj2xUz1iScLYxk9iozRd-72" value="" style="endArrow=none;html=1;entryX=0.5;entryY=1;entryDx=0;entryDy=0;" edge="1" parent="1" target="Hj2xUz1iScLYxk9iozRd-70">
          <mxGeometry width="50" height="50" relative="1" as="geometry">
            <mxPoint x="700" y="1160" as="sourcePoint" />
            <mxPoint x="690" y="960" as="targetPoint" />
          </mxGeometry>
        </mxCell>
        <mxCell id="Hj2xUz1iScLYxk9iozRd-73" value="" style="endArrow=none;html=1;" edge="1" parent="1">
          <mxGeometry width="50" height="50" relative="1" as="geometry">
            <mxPoint x="440" y="1160" as="sourcePoint" />
            <mxPoint x="440" y="910" as="targetPoint" />
          </mxGeometry>
        </mxCell>
        <mxCell id="Hj2xUz1iScLYxk9iozRd-74" value="" style="endArrow=classic;html=1;" edge="1" parent="1">
          <mxGeometry width="50" height="50" relative="1" as="geometry">
            <mxPoint x="700" y="960" as="sourcePoint" />
            <mxPoint x="440" y="960" as="targetPoint" />
          </mxGeometry>
        </mxCell>
        <mxCell id="Hj2xUz1iScLYxk9iozRd-75" value="发布command主题" style="edgeLabel;html=1;align=center;verticalAlign=middle;resizable=0;points=[];" vertex="1" connectable="0" parent="Hj2xUz1iScLYxk9iozRd-74">
          <mxGeometry x="-0.168" y="1" relative="1" as="geometry">
            <mxPoint x="-22" as="offset" />
          </mxGeometry>
        </mxCell>
        <mxCell id="Hj2xUz1iScLYxk9iozRd-76" value="应用" style="rounded=0;whiteSpace=wrap;html=1;" vertex="1" parent="1">
          <mxGeometry x="130" y="850" width="120" height="60" as="geometry" />
        </mxCell>
        <mxCell id="Hj2xUz1iScLYxk9iozRd-77" value="" style="endArrow=none;html=1;" edge="1" parent="1">
          <mxGeometry width="50" height="50" relative="1" as="geometry">
            <mxPoint x="190" y="1160" as="sourcePoint" />
            <mxPoint x="190" y="910" as="targetPoint" />
          </mxGeometry>
        </mxCell>
        <mxCell id="Hj2xUz1iScLYxk9iozRd-78" value="" style="endArrow=classic;html=1;" edge="1" parent="1">
          <mxGeometry width="50" height="50" relative="1" as="geometry">
            <mxPoint x="440" y="1000" as="sourcePoint" />
            <mxPoint x="190" y="1000" as="targetPoint" />
          </mxGeometry>
        </mxCell>
        <mxCell id="Hj2xUz1iScLYxk9iozRd-79" value="ubus invoke async" style="edgeLabel;html=1;align=center;verticalAlign=middle;resizable=0;points=[];" vertex="1" connectable="0" parent="Hj2xUz1iScLYxk9iozRd-78">
          <mxGeometry x="-0.088" y="3" relative="1" as="geometry">
            <mxPoint as="offset" />
          </mxGeometry>
        </mxCell>
        <mxCell id="Hj2xUz1iScLYxk9iozRd-80" value="" style="endArrow=classic;html=1;" edge="1" parent="1">
          <mxGeometry width="50" height="50" relative="1" as="geometry">
            <mxPoint x="190" y="1080" as="sourcePoint" />
            <mxPoint x="440" y="1080" as="targetPoint" />
          </mxGeometry>
        </mxCell>
        <mxCell id="Hj2xUz1iScLYxk9iozRd-81" value="ubus invoke 响应" style="edgeLabel;html=1;align=center;verticalAlign=middle;resizable=0;points=[];" vertex="1" connectable="0" parent="Hj2xUz1iScLYxk9iozRd-80">
          <mxGeometry x="0.368" relative="1" as="geometry">
            <mxPoint x="-41" as="offset" />
          </mxGeometry>
        </mxCell>
        <mxCell id="Hj2xUz1iScLYxk9iozRd-82" value="发布command_reply主题" style="endArrow=classic;html=1;" edge="1" parent="1">
          <mxGeometry width="50" height="50" relative="1" as="geometry">
            <mxPoint x="440" y="1110" as="sourcePoint" />
            <mxPoint x="700" y="1110" as="targetPoint" />
          </mxGeometry>
        </mxCell>
        <mxCell id="Hj2xUz1iScLYxk9iozRd-83" value="" style="endArrow=classic;html=1;" edge="1" parent="1">
          <mxGeometry width="50" height="50" relative="1" as="geometry">
            <mxPoint x="440" y="1030" as="sourcePoint" />
            <mxPoint x="440" y="1050" as="targetPoint" />
            <Array as="points">
              <mxPoint x="370" y="1030" />
              <mxPoint x="370" y="1050" />
            </Array>
          </mxGeometry>
        </mxCell>
        <mxCell id="Hj2xUz1iScLYxk9iozRd-84" value="进入API_RUNNING&lt;br&gt;直到超时或ubus 响应" style="edgeLabel;html=1;align=center;verticalAlign=middle;resizable=0;points=[];" vertex="1" connectable="0" parent="Hj2xUz1iScLYxk9iozRd-83">
          <mxGeometry x="-0.8" y="-1" relative="1" as="geometry">
            <mxPoint x="76" y="11" as="offset" />
          </mxGeometry>
        </mxCell>
        <mxCell id="Hj2xUz1iScLYxk9iozRd-85" value="mqtt 平台" style="rounded=0;whiteSpace=wrap;html=1;" vertex="1" parent="1">
          <mxGeometry x="635" y="1180" width="120" height="60" as="geometry" />
        </mxCell>
        <mxCell id="Hj2xUz1iScLYxk9iozRd-86" value="mqagent" style="rounded=0;whiteSpace=wrap;html=1;" vertex="1" parent="1">
          <mxGeometry x="380" y="1180" width="120" height="60" as="geometry" />
        </mxCell>
        <mxCell id="Hj2xUz1iScLYxk9iozRd-87" value="" style="endArrow=none;html=1;entryX=0.5;entryY=1;entryDx=0;entryDy=0;" edge="1" parent="1" target="Hj2xUz1iScLYxk9iozRd-85">
          <mxGeometry width="50" height="50" relative="1" as="geometry">
            <mxPoint x="695" y="1530" as="sourcePoint" />
            <mxPoint x="685" y="1330" as="targetPoint" />
          </mxGeometry>
        </mxCell>
        <mxCell id="Hj2xUz1iScLYxk9iozRd-88" value="" style="endArrow=none;html=1;entryX=0.5;entryY=1;entryDx=0;entryDy=0;" edge="1" parent="1" target="Hj2xUz1iScLYxk9iozRd-86">
          <mxGeometry width="50" height="50" relative="1" as="geometry">
            <mxPoint x="440" y="1530" as="sourcePoint" />
            <mxPoint x="435" y="1280" as="targetPoint" />
          </mxGeometry>
        </mxCell>
        <mxCell id="Hj2xUz1iScLYxk9iozRd-89" value="应用" style="rounded=0;whiteSpace=wrap;html=1;" vertex="1" parent="1">
          <mxGeometry x="125" y="1180" width="120" height="60" as="geometry" />
        </mxCell>
        <mxCell id="Hj2xUz1iScLYxk9iozRd-90" value="" style="endArrow=none;html=1;entryX=0.5;entryY=1;entryDx=0;entryDy=0;" edge="1" parent="1" target="Hj2xUz1iScLYxk9iozRd-89">
          <mxGeometry width="50" height="50" relative="1" as="geometry">
            <mxPoint x="185" y="1530" as="sourcePoint" />
            <mxPoint x="185" y="1280" as="targetPoint" />
          </mxGeometry>
        </mxCell>
        <mxCell id="Hj2xUz1iScLYxk9iozRd-91" value="" style="endArrow=classic;html=1;" edge="1" parent="1">
          <mxGeometry width="50" height="50" relative="1" as="geometry">
            <mxPoint x="435" y="1310" as="sourcePoint" />
            <mxPoint x="185" y="1310" as="targetPoint" />
          </mxGeometry>
        </mxCell>
        <mxCell id="Hj2xUz1iScLYxk9iozRd-92" value="每个1分钟&lt;br&gt;ubus invoke &lt;br&gt;updateSubscribe" style="edgeLabel;html=1;align=center;verticalAlign=middle;resizable=0;points=[];" vertex="1" connectable="0" parent="Hj2xUz1iScLYxk9iozRd-91">
          <mxGeometry x="-0.088" y="3" relative="1" as="geometry">
            <mxPoint as="offset" />
          </mxGeometry>
        </mxCell>
        <mxCell id="Hj2xUz1iScLYxk9iozRd-93" value="" style="endArrow=classic;html=1;" edge="1" parent="1">
          <mxGeometry width="50" height="50" relative="1" as="geometry">
            <mxPoint x="185" y="1350" as="sourcePoint" />
            <mxPoint x="435" y="1350" as="targetPoint" />
          </mxGeometry>
        </mxCell>
        <mxCell id="Hj2xUz1iScLYxk9iozRd-94" value="updateSubscribe方法中&lt;br&gt;调用了ubus_notify&lt;br&gt;发布 需要上报到mqtt的主题到ubusd" style="edgeLabel;html=1;align=center;verticalAlign=middle;resizable=0;points=[];" vertex="1" connectable="0" parent="Hj2xUz1iScLYxk9iozRd-93">
          <mxGeometry x="0.368" relative="1" as="geometry">
            <mxPoint x="-36" y="10" as="offset" />
          </mxGeometry>
        </mxCell>
        <mxCell id="Hj2xUz1iScLYxk9iozRd-95" value="发布report主题" style="endArrow=classic;html=1;" edge="1" parent="1">
          <mxGeometry width="50" height="50" relative="1" as="geometry">
            <mxPoint x="440" y="1440" as="sourcePoint" />
            <mxPoint x="700" y="1440" as="targetPoint" />
          </mxGeometry>
        </mxCell>
        <mxCell id="Hj2xUz1iScLYxk9iozRd-96" value="" style="endArrow=classic;html=1;" edge="1" parent="1">
          <mxGeometry width="50" height="50" relative="1" as="geometry">
            <mxPoint x="440" y="1260" as="sourcePoint" />
            <mxPoint x="190" y="1260" as="targetPoint" />
          </mxGeometry>
        </mxCell>
        <mxCell id="Hj2xUz1iScLYxk9iozRd-97" value="ubus_subscribe&lt;br&gt;订阅ubusd主题" style="edgeLabel;html=1;align=center;verticalAlign=middle;resizable=0;points=[];" vertex="1" connectable="0" parent="Hj2xUz1iScLYxk9iozRd-96">
          <mxGeometry x="-0.088" y="3" relative="1" as="geometry">
            <mxPoint as="offset" />
          </mxGeometry>
        </mxCell>
        <mxCell id="Hj2xUz1iScLYxk9iozRd-98" value="将ubus订阅的消息&lt;br&gt;解析成mqtt主题的格式" style="edgeLabel;html=1;align=center;verticalAlign=middle;resizable=0;points=[];" vertex="1" connectable="0" parent="1">
          <mxGeometry x="500" y="1400" as="geometry" />
        </mxCell>
        <mxCell id="Hj2xUz1iScLYxk9iozRd-99" value="report 主题" style="shape=document;whiteSpace=wrap;html=1;boundedLbl=1;" vertex="1" parent="1">
          <mxGeometry y="1170" width="120" height="80" as="geometry" />
        </mxCell>
        <mxCell id="Hj2xUz1iScLYxk9iozRd-100" value="command&amp;nbsp;主题" style="shape=document;whiteSpace=wrap;html=1;boundedLbl=1;" vertex="1" parent="1">
          <mxGeometry y="840" width="120" height="80" as="geometry" />
        </mxCell>
        <mxCell id="Hj2xUz1iScLYxk9iozRd-101" value="mqtt 平台" style="rounded=0;whiteSpace=wrap;html=1;" vertex="1" parent="1">
          <mxGeometry x="720" y="1550" width="120" height="60" as="geometry" />
        </mxCell>
        <mxCell id="Hj2xUz1iScLYxk9iozRd-102" value="mqagent" style="rounded=0;whiteSpace=wrap;html=1;" vertex="1" parent="1">
          <mxGeometry x="522.5" y="1550" width="120" height="60" as="geometry" />
        </mxCell>
        <mxCell id="Hj2xUz1iScLYxk9iozRd-103" value="" style="endArrow=none;html=1;entryX=0.5;entryY=1;entryDx=0;entryDy=0;" edge="1" parent="1" target="Hj2xUz1iScLYxk9iozRd-101">
          <mxGeometry width="50" height="50" relative="1" as="geometry">
            <mxPoint x="780" y="1900" as="sourcePoint" />
            <mxPoint x="770" y="1700" as="targetPoint" />
          </mxGeometry>
        </mxCell>
        <mxCell id="Hj2xUz1iScLYxk9iozRd-104" value="" style="endArrow=none;html=1;entryX=0.5;entryY=1;entryDx=0;entryDy=0;" edge="1" parent="1" target="Hj2xUz1iScLYxk9iozRd-102">
          <mxGeometry width="50" height="50" relative="1" as="geometry">
            <mxPoint x="582.5" y="1900" as="sourcePoint" />
            <mxPoint x="577.5" y="1650" as="targetPoint" />
          </mxGeometry>
        </mxCell>
        <mxCell id="Hj2xUz1iScLYxk9iozRd-105" value="应用" style="rounded=0;whiteSpace=wrap;html=1;" vertex="1" parent="1">
          <mxGeometry x="125" y="1550" width="120" height="60" as="geometry" />
        </mxCell>
        <mxCell id="Hj2xUz1iScLYxk9iozRd-106" value="" style="endArrow=none;html=1;entryX=0.5;entryY=1;entryDx=0;entryDy=0;" edge="1" parent="1" target="Hj2xUz1iScLYxk9iozRd-105">
          <mxGeometry width="50" height="50" relative="1" as="geometry">
            <mxPoint x="185" y="1900" as="sourcePoint" />
            <mxPoint x="185" y="1650" as="targetPoint" />
          </mxGeometry>
        </mxCell>
        <mxCell id="Hj2xUz1iScLYxk9iozRd-107" value="发布alarm主题" style="endArrow=classic;html=1;" edge="1" parent="1">
          <mxGeometry width="50" height="50" relative="1" as="geometry">
            <mxPoint x="582.5" y="1810" as="sourcePoint" />
            <mxPoint x="780" y="1810" as="targetPoint" />
          </mxGeometry>
        </mxCell>
        <mxCell id="Hj2xUz1iScLYxk9iozRd-108" value="将ubus订阅的消息&lt;br&gt;解析成mqtt主题的格式" style="edgeLabel;html=1;align=center;verticalAlign=middle;resizable=0;points=[];" vertex="1" connectable="0" parent="1">
          <mxGeometry x="642.5" y="1770" as="geometry" />
        </mxCell>
        <mxCell id="Hj2xUz1iScLYxk9iozRd-109" value="alarm 主题" style="shape=document;whiteSpace=wrap;html=1;boundedLbl=1;" vertex="1" parent="1">
          <mxGeometry y="1540" width="120" height="80" as="geometry" />
        </mxCell>
        <mxCell id="Hj2xUz1iScLYxk9iozRd-110" value="alarmhub" style="rounded=0;whiteSpace=wrap;html=1;" vertex="1" parent="1">
          <mxGeometry x="320" y="1550" width="120" height="60" as="geometry" />
        </mxCell>
        <mxCell id="Hj2xUz1iScLYxk9iozRd-111" value="" style="endArrow=none;html=1;entryX=0.5;entryY=1;entryDx=0;entryDy=0;" edge="1" parent="1" target="Hj2xUz1iScLYxk9iozRd-110">
          <mxGeometry width="50" height="50" relative="1" as="geometry">
            <mxPoint x="380" y="1900" as="sourcePoint" />
            <mxPoint x="380" y="1650" as="targetPoint" />
          </mxGeometry>
        </mxCell>
        <mxCell id="Hj2xUz1iScLYxk9iozRd-112" value="" style="endArrow=classic;html=1;" edge="1" parent="1">
          <mxGeometry width="50" height="50" relative="1" as="geometry">
            <mxPoint x="180" y="1650" as="sourcePoint" />
            <mxPoint x="380" y="1650" as="targetPoint" />
          </mxGeometry>
        </mxCell>
        <mxCell id="Hj2xUz1iScLYxk9iozRd-113" value="往socke发送告警msg" style="edgeLabel;html=1;align=center;verticalAlign=middle;resizable=0;points=[];" vertex="1" connectable="0" parent="Hj2xUz1iScLYxk9iozRd-112">
          <mxGeometry x="0.15" y="-3" relative="1" as="geometry">
            <mxPoint as="offset" />
          </mxGeometry>
        </mxCell>
        <mxCell id="Hj2xUz1iScLYxk9iozRd-114" value="记录msg到&lt;br&gt;file、数据库、&lt;br&gt;ubus_notify" style="edgeLabel;html=1;align=center;verticalAlign=middle;resizable=0;points=[];" vertex="1" connectable="0" parent="1">
          <mxGeometry x="340" y="1700" as="geometry" />
        </mxCell>
        <mxCell id="Hj2xUz1iScLYxk9iozRd-115" value="" style="endArrow=classic;html=1;" edge="1" parent="1">
          <mxGeometry width="50" height="50" relative="1" as="geometry">
            <mxPoint x="380" y="1760" as="sourcePoint" />
            <mxPoint x="580" y="1760" as="targetPoint" />
          </mxGeometry>
        </mxCell>
        <mxCell id="Hj2xUz1iScLYxk9iozRd-116" value="ubus_notify" style="edgeLabel;html=1;align=center;verticalAlign=middle;resizable=0;points=[];" vertex="1" connectable="0" parent="Hj2xUz1iScLYxk9iozRd-115">
          <mxGeometry x="0.15" y="-3" relative="1" as="geometry">
            <mxPoint as="offset" />
          </mxGeometry>
        </mxCell>
        <mxCell id="Hj2xUz1iScLYxk9iozRd-117" value="" style="endArrow=classic;html=1;" edge="1" parent="1">
          <mxGeometry width="50" height="50" relative="1" as="geometry">
            <mxPoint x="580" y="1630" as="sourcePoint" />
            <mxPoint x="380" y="1630" as="targetPoint" />
          </mxGeometry>
        </mxCell>
        <mxCell id="Hj2xUz1iScLYxk9iozRd-118" value="ubus subscribe" style="edgeLabel;html=1;align=center;verticalAlign=middle;resizable=0;points=[];" vertex="1" connectable="0" parent="Hj2xUz1iScLYxk9iozRd-117">
          <mxGeometry x="-0.26" y="2" relative="1" as="geometry">
            <mxPoint as="offset" />
          </mxGeometry>
        </mxCell>
        <mxCell id="2" value="连接线" parent="0" />
        <mxCell id="46" style="vsdxID=73;edgeStyle=none;startArrow=none;endArrow=block;startSize=5;endSize=5;strokeColor=#5b9bd5;spacingTop=0;spacingBottom=0;spacingLeft=0;spacingRight=0;verticalAlign=middle;html=1;labelBackgroundColor=#ffffff;rounded=0;exitX=0.5;exitY=1;exitDx=0;exitDy=0;exitPerimeter=0;entryX=0.5;entryY=0;entryDx=0;entryDy=0;entryPerimeter=0;" parent="2" source="36" target="37" edge="1">
          <mxGeometry relative="1" as="geometry">
            <mxPoint x="10" as="offset" />
            <Array as="points" />
          </mxGeometry>
        </mxCell>
        <mxCell id="47" style="vsdxID=71;edgeStyle=none;startArrow=none;endArrow=block;startSize=5;endSize=5;strokeColor=#5b9bd5;spacingTop=0;spacingBottom=0;spacingLeft=0;spacingRight=0;verticalAlign=middle;html=1;labelBackgroundColor=#ffffff;rounded=0;exitX=0.5;exitY=1;exitDx=0;exitDy=0;exitPerimeter=0;entryX=0.5;entryY=0;entryDx=0;entryDy=0;entryPerimeter=0;" parent="2" source="34" target="35" edge="1">
          <mxGeometry relative="1" as="geometry">
            <mxPoint x="10" as="offset" />
            <Array as="points" />
          </mxGeometry>
        </mxCell>
        <mxCell id="48" value="&lt;div style=&quot;font-size: 1px&quot;&gt;&lt;font style=&quot;font-size:11.29px;font-family:SimSun;color:#44749f;direction:ltr;letter-spacing:0px;line-height:120%;opacity:1&quot;&gt;是&lt;br/&gt;&lt;/font&gt;&lt;/div&gt;" style="vsdxID=13;edgeStyle=none;startArrow=none;endArrow=block;startSize=5;endSize=5;strokeColor=#5b9bd5;spacingTop=0;spacingBottom=0;spacingLeft=0;spacingRight=0;verticalAlign=middle;html=1;labelBackgroundColor=#ffffff;rounded=0;align=center;exitX=0.5;exitY=1;exitDx=0;exitDy=0;exitPerimeter=0;entryX=0.5;entryY=0;entryDx=0;entryDy=0;entryPerimeter=0;" parent="2" source="10" target="12" edge="1">
          <mxGeometry relative="1" as="geometry">
            <mxPoint x="10" as="offset" />
            <Array as="points" />
          </mxGeometry>
        </mxCell>
        <mxCell id="49" value="&lt;div style=&quot;font-size: 1px&quot;&gt;&lt;font style=&quot;font-size:11.29px;font-family:SimSun;color:#44749f;direction:ltr;letter-spacing:0px;line-height:120%;opacity:1&quot;&gt;否&lt;br/&gt;&lt;/font&gt;&lt;/div&gt;" style="vsdxID=14;edgeStyle=none;startArrow=none;endArrow=block;startSize=5;endSize=5;strokeColor=#5b9bd5;spacingTop=0;spacingBottom=0;spacingLeft=0;spacingRight=0;verticalAlign=middle;html=1;labelBackgroundColor=#ffffff;rounded=0;align=center;exitX=0;exitY=0.5;exitDx=0;exitDy=0;exitPerimeter=0;entryX=0;entryY=0.5;entryDx=0;entryDy=0;entryPerimeter=0;" parent="2" source="10" target="29" edge="1">
          <mxGeometry relative="1" as="geometry">
            <mxPoint x="10" as="offset" />
            <Array as="points">
              <mxPoint x="375" y="238" />
              <mxPoint x="375" y="148" />
            </Array>
          </mxGeometry>
        </mxCell>
        <mxCell id="50" style="vsdxID=15;edgeStyle=none;startArrow=none;endArrow=block;startSize=5;endSize=5;strokeColor=#5b9bd5;spacingTop=0;spacingBottom=0;spacingLeft=0;spacingRight=0;verticalAlign=middle;html=1;labelBackgroundColor=#ffffff;rounded=0;exitX=0.5;exitY=1;exitDx=0;exitDy=0;exitPerimeter=0;entryX=0.5;entryY=0;entryDx=0;entryDy=0;entryPerimeter=0;" parent="2" source="29" target="10" edge="1">
          <mxGeometry relative="1" as="geometry">
            <mxPoint x="10" as="offset" />
            <Array as="points" />
          </mxGeometry>
        </mxCell>
        <mxCell id="51" style="vsdxID=81;edgeStyle=none;startArrow=none;endArrow=block;startSize=5;endSize=5;strokeColor=#5b9bd5;spacingTop=0;spacingBottom=0;spacingLeft=0;spacingRight=0;verticalAlign=middle;html=1;labelBackgroundColor=#ffffff;rounded=0;exitX=0.5;exitY=1;exitDx=0;exitDy=0;exitPerimeter=0;entryX=0.5;entryY=0;entryDx=0;entryDy=0;entryPerimeter=0;" parent="2" source="43" target="39" edge="1">
          <mxGeometry relative="1" as="geometry">
            <mxPoint y="-1" as="offset" />
            <Array as="points" />
          </mxGeometry>
        </mxCell>
        <mxCell id="52" style="vsdxID=79;edgeStyle=none;startArrow=none;endArrow=block;startSize=5;endSize=5;strokeColor=#5b9bd5;spacingTop=0;spacingBottom=0;spacingLeft=0;spacingRight=0;verticalAlign=middle;html=1;labelBackgroundColor=#ffffff;rounded=0;exitX=0.5;exitY=1;exitDx=0;exitDy=0;exitPerimeter=0;entryX=0.5;entryY=1;entryDx=0;entryDy=0;entryPerimeter=0;" parent="2" source="42" target="41" edge="1">
          <mxGeometry relative="1" as="geometry">
            <mxPoint as="offset" />
            <Array as="points">
              <mxPoint x="1330" y="207.88" />
              <mxPoint x="1180" y="207.88" />
            </Array>
          </mxGeometry>
        </mxCell>
        <mxCell id="53" style="vsdxID=78;edgeStyle=none;startArrow=none;endArrow=block;startSize=5;endSize=5;strokeColor=#5b9bd5;spacingTop=0;spacingBottom=0;spacingLeft=0;spacingRight=0;verticalAlign=middle;html=1;labelBackgroundColor=#ffffff;rounded=0;exitX=1;exitY=0.5;exitDx=0;exitDy=0;exitPerimeter=0;entryX=0;entryY=0.5;entryDx=0;entryDy=0;entryPerimeter=0;" parent="2" source="41" target="42" edge="1">
          <mxGeometry relative="1" as="geometry">
            <mxPoint as="offset" />
            <Array as="points" />
          </mxGeometry>
        </mxCell>
        <mxCell id="54" style="vsdxID=77;edgeStyle=none;startArrow=none;endArrow=block;startSize=5;endSize=5;strokeColor=#5b9bd5;spacingTop=0;spacingBottom=0;spacingLeft=0;spacingRight=0;verticalAlign=middle;html=1;labelBackgroundColor=#ffffff;rounded=0;exitX=1;exitY=0.5;exitDx=0;exitDy=0;exitPerimeter=0;entryX=0;entryY=0.5;entryDx=0;entryDy=0;entryPerimeter=0;" parent="2" source="39" target="41" edge="1">
          <mxGeometry relative="1" as="geometry">
            <mxPoint as="offset" />
            <Array as="points" />
          </mxGeometry>
        </mxCell>
        <mxCell id="55" style="vsdxID=76;edgeStyle=none;startArrow=none;endArrow=block;startSize=5;endSize=5;strokeColor=#5b9bd5;spacingTop=0;spacingBottom=0;spacingLeft=0;spacingRight=0;verticalAlign=middle;html=1;labelBackgroundColor=#ffffff;rounded=0;exitX=0.5;exitY=1;exitDx=0;exitDy=0;exitPerimeter=0;entryX=0.5;entryY=0;entryDx=0;entryDy=0;entryPerimeter=0;" parent="2" source="39" target="40" edge="1">
          <mxGeometry relative="1" as="geometry">
            <mxPoint x="10" as="offset" />
            <Array as="points" />
          </mxGeometry>
        </mxCell>
        <mxCell id="56" style="vsdxID=75;edgeStyle=none;startArrow=none;endArrow=block;startSize=5;endSize=5;strokeColor=#5b9bd5;spacingTop=0;spacingBottom=0;spacingLeft=0;spacingRight=0;verticalAlign=middle;html=1;labelBackgroundColor=#ffffff;rounded=0;exitX=0.5;exitY=1;exitDx=0;exitDy=0;exitPerimeter=0;entryX=0.5;entryY=0;entryDx=0;entryDy=0;entryPerimeter=0;" parent="2" source="38" target="39" edge="1">
          <mxGeometry relative="1" as="geometry">
            <mxPoint as="offset" />
            <Array as="points">
              <mxPoint x="880" y="747.88" />
              <mxPoint x="947.88" y="747.88" />
              <mxPoint x="947.88" y="112.12" />
              <mxPoint x="1030" y="112.12" />
            </Array>
          </mxGeometry>
        </mxCell>
        <mxCell id="57" style="vsdxID=74;edgeStyle=none;startArrow=none;endArrow=block;startSize=5;endSize=5;strokeColor=#5b9bd5;spacingTop=0;spacingBottom=0;spacingLeft=0;spacingRight=0;verticalAlign=middle;html=1;labelBackgroundColor=#ffffff;rounded=0;exitX=0.5;exitY=1;exitDx=0;exitDy=0;exitPerimeter=0;entryX=0.5;entryY=0;entryDx=0;entryDy=0;entryPerimeter=0;" parent="2" source="37" target="38" edge="1">
          <mxGeometry relative="1" as="geometry">
            <mxPoint x="10" as="offset" />
            <Array as="points" />
          </mxGeometry>
        </mxCell>
        <mxCell id="58" style="vsdxID=72;edgeStyle=none;startArrow=none;endArrow=block;startSize=5;endSize=5;strokeColor=#5b9bd5;spacingTop=0;spacingBottom=0;spacingLeft=0;spacingRight=0;verticalAlign=middle;html=1;labelBackgroundColor=#ffffff;rounded=0;exitX=0.5;exitY=1;exitDx=0;exitDy=0;exitPerimeter=0;entryX=0.5;entryY=0;entryDx=0;entryDy=0;entryPerimeter=0;" parent="2" source="35" target="36" edge="1">
          <mxGeometry relative="1" as="geometry">
            <mxPoint x="10" as="offset" />
            <Array as="points" />
          </mxGeometry>
        </mxCell>
        <mxCell id="59" style="vsdxID=70;edgeStyle=none;startArrow=none;endArrow=block;startSize=5;endSize=5;strokeColor=#5b9bd5;spacingTop=0;spacingBottom=0;spacingLeft=0;spacingRight=0;verticalAlign=middle;html=1;labelBackgroundColor=#ffffff;rounded=0;exitX=0.5;exitY=1;exitDx=0;exitDy=0;exitPerimeter=0;entryX=0.5;entryY=0;entryDx=0;entryDy=0;entryPerimeter=0;" parent="2" source="33" target="34" edge="1">
          <mxGeometry relative="1" as="geometry">
            <mxPoint x="10" as="offset" />
            <Array as="points" />
          </mxGeometry>
        </mxCell>
        <mxCell id="60" style="vsdxID=69;edgeStyle=none;startArrow=none;endArrow=block;startSize=5;endSize=5;strokeColor=#5b9bd5;spacingTop=0;spacingBottom=0;spacingLeft=0;spacingRight=0;verticalAlign=middle;html=1;labelBackgroundColor=#ffffff;rounded=0;exitX=0.5;exitY=1;exitDx=0;exitDy=0;exitPerimeter=0;entryX=0.5;entryY=0;entryDx=0;entryDy=0;entryPerimeter=0;" parent="2" source="32" target="33" edge="1">
          <mxGeometry relative="1" as="geometry">
            <mxPoint x="10" as="offset" />
            <Array as="points" />
          </mxGeometry>
        </mxCell>
        <mxCell id="61" style="vsdxID=68;edgeStyle=none;startArrow=none;endArrow=block;startSize=5;endSize=5;strokeColor=#5b9bd5;spacingTop=0;spacingBottom=0;spacingLeft=0;spacingRight=0;verticalAlign=middle;html=1;labelBackgroundColor=#ffffff;rounded=0;exitX=0.5;exitY=1;exitDx=0;exitDy=0;exitPerimeter=0;entryX=0.5;entryY=0;entryDx=0;entryDy=0;entryPerimeter=0;" parent="2" source="30" target="32" edge="1">
          <mxGeometry relative="1" as="geometry">
            <mxPoint x="10" as="offset" />
            <Array as="points" />
          </mxGeometry>
        </mxCell>
        <mxCell id="62" style="vsdxID=56;edgeStyle=none;startArrow=none;endArrow=block;startSize=5;endSize=5;strokeColor=#5b9bd5;spacingTop=0;spacingBottom=0;spacingLeft=0;spacingRight=0;verticalAlign=middle;html=1;labelBackgroundColor=#ffffff;rounded=0;exitX=0.5;exitY=1;exitDx=0;exitDy=0;exitPerimeter=0;entryX=0.5;entryY=0;entryDx=0;entryDy=0;entryPerimeter=0;" parent="2" source="13" target="14" edge="1">
          <mxGeometry relative="1" as="geometry">
            <mxPoint x="10" as="offset" />
            <Array as="points" />
          </mxGeometry>
        </mxCell>
        <mxCell id="63" style="vsdxID=55;edgeStyle=none;startArrow=none;endArrow=block;startSize=5;endSize=5;strokeColor=#5b9bd5;spacingTop=0;spacingBottom=0;spacingLeft=0;spacingRight=0;verticalAlign=middle;html=1;labelBackgroundColor=#ffffff;rounded=0;exitX=0.5;exitY=1;exitDx=0;exitDy=0;exitPerimeter=0;entryX=0.5;entryY=0;entryDx=0;entryDy=0;entryPerimeter=0;" parent="2" source="12" target="13" edge="1">
          <mxGeometry relative="1" as="geometry">
            <mxPoint x="10" as="offset" />
            <Array as="points" />
          </mxGeometry>
        </mxCell>
        <mxCell id="64" style="vsdxID=54;edgeStyle=none;startArrow=none;endArrow=block;startSize=5;endSize=5;strokeColor=#5b9bd5;spacingTop=0;spacingBottom=0;spacingLeft=0;spacingRight=0;verticalAlign=middle;html=1;labelBackgroundColor=#ffffff;rounded=0;exitX=0.5;exitY=1;exitDx=0;exitDy=0;exitPerimeter=0;entryX=0.5;entryY=0;entryDx=0;entryDy=0;entryPerimeter=0;" parent="2" source="9" target="31" edge="1">
          <mxGeometry relative="1" as="geometry">
            <mxPoint x="10" as="offset" />
            <Array as="points" />
          </mxGeometry>
        </mxCell>
        <mxCell id="65" style="vsdxID=52;edgeStyle=none;startArrow=none;endArrow=block;startSize=5;endSize=5;strokeColor=#5b9bd5;spacingTop=0;spacingBottom=0;spacingLeft=0;spacingRight=0;verticalAlign=middle;html=1;labelBackgroundColor=#ffffff;rounded=0;exitX=0.5;exitY=1;exitDx=0;exitDy=0;exitPerimeter=0;entryX=0.5;entryY=0;entryDx=0;entryDy=0;entryPerimeter=0;" parent="2" source="8" target="9" edge="1">
          <mxGeometry relative="1" as="geometry">
            <mxPoint x="10" as="offset" />
            <Array as="points" />
          </mxGeometry>
        </mxCell>
        <mxCell id="66" style="vsdxID=51;edgeStyle=none;startArrow=none;endArrow=block;startSize=5;endSize=5;strokeColor=#5b9bd5;spacingTop=0;spacingBottom=0;spacingLeft=0;spacingRight=0;verticalAlign=middle;html=1;labelBackgroundColor=#ffffff;rounded=0;exitX=0.5;exitY=1;exitDx=0;exitDy=0;exitPerimeter=0;entryX=0.5;entryY=0;entryDx=0;entryDy=0;entryPerimeter=0;" parent="2" source="7" target="8" edge="1">
          <mxGeometry relative="1" as="geometry">
            <mxPoint x="10" as="offset" />
            <Array as="points" />
          </mxGeometry>
        </mxCell>
        <mxCell id="67" style="vsdxID=49;edgeStyle=none;startArrow=none;endArrow=block;startSize=5;endSize=5;strokeColor=#5b9bd5;spacingTop=0;spacingBottom=0;spacingLeft=0;spacingRight=0;verticalAlign=middle;html=1;labelBackgroundColor=#ffffff;rounded=0;exitX=0.5;exitY=1;exitDx=0;exitDy=0;exitPerimeter=0;entryX=0.5;entryY=0;entryDx=0;entryDy=0;entryPerimeter=0;" parent="2" source="31" target="29" edge="1">
          <mxGeometry relative="1" as="geometry">
            <mxPoint as="offset" />
            <Array as="points">
              <mxPoint x="240" y="643" />
              <mxPoint x="305" y="643" />
              <mxPoint x="305" y="103" />
              <mxPoint x="440" y="103" />
            </Array>
          </mxGeometry>
        </mxCell>
        <mxCell id="68" style="vsdxID=18;edgeStyle=none;startArrow=none;endArrow=block;startSize=5;endSize=5;strokeColor=#5b9bd5;spacingTop=0;spacingBottom=0;spacingLeft=0;spacingRight=0;verticalAlign=middle;html=1;labelBackgroundColor=#ffffff;rounded=0;exitX=0.5;exitY=1;exitDx=0;exitDy=0;exitPerimeter=0;entryX=0.5;entryY=0;entryDx=0;entryDy=0;entryPerimeter=0;" parent="2" source="6" target="7" edge="1">
          <mxGeometry relative="1" as="geometry">
            <mxPoint x="10" as="offset" />
            <Array as="points" />
          </mxGeometry>
        </mxCell>
        <mxCell id="69" style="vsdxID=17;edgeStyle=none;startArrow=none;endArrow=block;startSize=5;endSize=5;strokeColor=#5b9bd5;spacingTop=0;spacingBottom=0;spacingLeft=0;spacingRight=0;verticalAlign=middle;html=1;labelBackgroundColor=#ffffff;rounded=0;exitX=0.5;exitY=1;exitDx=0;exitDy=0;exitPerimeter=0;entryX=0.5;entryY=0;entryDx=0;entryDy=0;entryPerimeter=0;" parent="2" source="5" target="6" edge="1">
          <mxGeometry relative="1" as="geometry">
            <mxPoint x="10" as="offset" />
            <Array as="points" />
          </mxGeometry>
        </mxCell>
        <mxCell id="70" style="vsdxID=16;edgeStyle=none;startArrow=none;endArrow=block;startSize=5;endSize=5;strokeColor=#5b9bd5;spacingTop=0;spacingBottom=0;spacingLeft=0;spacingRight=0;verticalAlign=middle;html=1;labelBackgroundColor=#ffffff;rounded=0;exitX=0.5;exitY=1;exitDx=0;exitDy=0;exitPerimeter=0;entryX=0.5;entryY=0;entryDx=0;entryDy=0;entryPerimeter=0;" parent="2" source="3" target="5" edge="1">
          <mxGeometry relative="1" as="geometry">
            <mxPoint x="10" as="offset" />
            <Array as="points" />
          </mxGeometry>
        </mxCell>
      </root>
    </mxGraphModel>
  </diagram>
  <diagram id="qMiwNa8wI0a4JbCTHMvW" name="mqtt uml">
    <mxGraphModel dx="1434" dy="-406" grid="1" gridSize="10" guides="1" tooltips="1" connect="1" arrows="1" fold="1" page="1" pageScale="1" pageWidth="827" pageHeight="1169" math="0" shadow="0">
      <root>
        <mxCell id="1yV7QQraYtUZ5eV9TniR-0" />
        <mxCell id="1yV7QQraYtUZ5eV9TniR-1" parent="1yV7QQraYtUZ5eV9TniR-0" />
        <mxCell id="Obmb8WOaJMgRbE2nbq53-0" value="" style="edgeStyle=none;html=1;entryX=0;entryY=0.5;entryDx=0;entryDy=0;exitX=1;exitY=0.5;exitDx=0;exitDy=0;" parent="1yV7QQraYtUZ5eV9TniR-1" source="Obmb8WOaJMgRbE2nbq53-38" target="Obmb8WOaJMgRbE2nbq53-5" edge="1">
          <mxGeometry relative="1" as="geometry">
            <mxPoint x="380" y="730" as="sourcePoint" />
          </mxGeometry>
        </mxCell>
        <mxCell id="Obmb8WOaJMgRbE2nbq53-1" value="mqttApiData_t" style="swimlane;fontStyle=0;align=center;verticalAlign=top;childLayout=stackLayout;horizontal=1;startSize=30;horizontalStack=0;resizeParent=1;resizeParentMax=0;resizeLast=0;collapsible=0;marginBottom=0;html=1;" parent="1yV7QQraYtUZ5eV9TniR-1" vertex="1">
          <mxGeometry x="595" y="1558" width="140" height="198" as="geometry" />
        </mxCell>
        <mxCell id="Obmb8WOaJMgRbE2nbq53-2" value="name" style="text;html=1;strokeColor=none;fillColor=none;align=left;verticalAlign=middle;spacingLeft=4;spacingRight=4;overflow=hidden;rotatable=0;points=[[0,0.5],[1,0.5]];portConstraint=eastwest;" parent="Obmb8WOaJMgRbE2nbq53-1" vertex="1">
          <mxGeometry y="30" width="140" height="20" as="geometry" />
        </mxCell>
        <mxCell id="Obmb8WOaJMgRbE2nbq53-3" value="topic" style="text;html=1;strokeColor=none;fillColor=none;align=left;verticalAlign=middle;spacingLeft=4;spacingRight=4;overflow=hidden;rotatable=0;points=[[0,0.5],[1,0.5]];portConstraint=eastwest;" parent="Obmb8WOaJMgRbE2nbq53-1" vertex="1">
          <mxGeometry y="50" width="140" height="20" as="geometry" />
        </mxCell>
        <mxCell id="Obmb8WOaJMgRbE2nbq53-4" value="replyTopic" style="text;html=1;strokeColor=none;fillColor=none;align=left;verticalAlign=middle;spacingLeft=4;spacingRight=4;overflow=hidden;rotatable=0;points=[[0,0.5],[1,0.5]];portConstraint=eastwest;" parent="Obmb8WOaJMgRbE2nbq53-1" vertex="1">
          <mxGeometry y="70" width="140" height="20" as="geometry" />
        </mxCell>
        <mxCell id="Obmb8WOaJMgRbE2nbq53-5" value="qos" style="text;html=1;strokeColor=none;fillColor=none;align=left;verticalAlign=middle;spacingLeft=4;spacingRight=4;overflow=hidden;rotatable=0;points=[[0,0.5],[1,0.5]];portConstraint=eastwest;" parent="Obmb8WOaJMgRbE2nbq53-1" vertex="1">
          <mxGeometry y="90" width="140" height="20" as="geometry" />
        </mxCell>
        <mxCell id="Obmb8WOaJMgRbE2nbq53-6" value="version" style="text;html=1;strokeColor=none;fillColor=none;align=left;verticalAlign=middle;spacingLeft=4;spacingRight=4;overflow=hidden;rotatable=0;points=[[0,0.5],[1,0.5]];portConstraint=eastwest;" parent="Obmb8WOaJMgRbE2nbq53-1" vertex="1">
          <mxGeometry y="110" width="140" height="20" as="geometry" />
        </mxCell>
        <mxCell id="Obmb8WOaJMgRbE2nbq53-7" value="" style="line;strokeWidth=1;fillColor=none;align=left;verticalAlign=middle;spacingTop=-1;spacingLeft=3;spacingRight=3;rotatable=0;labelPosition=right;points=[];portConstraint=eastwest;" parent="Obmb8WOaJMgRbE2nbq53-1" vertex="1">
          <mxGeometry y="130" width="140" height="8" as="geometry" />
        </mxCell>
        <mxCell id="Obmb8WOaJMgRbE2nbq53-8" value="start" style="text;html=1;strokeColor=none;fillColor=none;align=left;verticalAlign=middle;spacingLeft=4;spacingRight=4;overflow=hidden;rotatable=0;points=[[0,0.5],[1,0.5]];portConstraint=eastwest;" parent="Obmb8WOaJMgRbE2nbq53-1" vertex="1">
          <mxGeometry y="138" width="140" height="20" as="geometry" />
        </mxCell>
        <mxCell id="Obmb8WOaJMgRbE2nbq53-9" value="exit" style="text;html=1;strokeColor=none;fillColor=none;align=left;verticalAlign=middle;spacingLeft=4;spacingRight=4;overflow=hidden;rotatable=0;points=[[0,0.5],[1,0.5]];portConstraint=eastwest;" parent="Obmb8WOaJMgRbE2nbq53-1" vertex="1">
          <mxGeometry y="158" width="140" height="20" as="geometry" />
        </mxCell>
        <mxCell id="Obmb8WOaJMgRbE2nbq53-10" value="callback" style="text;html=1;strokeColor=none;fillColor=none;align=left;verticalAlign=middle;spacingLeft=4;spacingRight=4;overflow=hidden;rotatable=0;points=[[0,0.5],[1,0.5]];portConstraint=eastwest;" parent="Obmb8WOaJMgRbE2nbq53-1" vertex="1">
          <mxGeometry y="178" width="140" height="20" as="geometry" />
        </mxCell>
        <mxCell id="Obmb8WOaJMgRbE2nbq53-11" value="" style="edgeStyle=none;html=1;" parent="1yV7QQraYtUZ5eV9TniR-1" source="Obmb8WOaJMgRbE2nbq53-13" target="Obmb8WOaJMgRbE2nbq53-26" edge="1">
          <mxGeometry relative="1" as="geometry" />
        </mxCell>
        <mxCell id="Obmb8WOaJMgRbE2nbq53-12" value="" style="edgeStyle=none;html=1;" parent="1yV7QQraYtUZ5eV9TniR-1" source="Obmb8WOaJMgRbE2nbq53-13" target="Obmb8WOaJMgRbE2nbq53-33" edge="1">
          <mxGeometry relative="1" as="geometry" />
        </mxCell>
        <mxCell id="Obmb8WOaJMgRbE2nbq53-13" value="mqttAgent" style="swimlane;fontStyle=0;align=center;verticalAlign=top;childLayout=stackLayout;horizontal=1;startSize=30;horizontalStack=0;resizeParent=1;resizeParentMax=0;resizeLast=0;collapsible=0;marginBottom=0;html=1;" parent="1yV7QQraYtUZ5eV9TniR-1" vertex="1">
          <mxGeometry x="70" y="1300" width="140" height="238" as="geometry" />
        </mxCell>
        <mxCell id="Obmb8WOaJMgRbE2nbq53-14" value="name" style="text;html=1;strokeColor=none;fillColor=none;align=left;verticalAlign=middle;spacingLeft=4;spacingRight=4;overflow=hidden;rotatable=0;points=[[0,0.5],[1,0.5]];portConstraint=eastwest;" parent="Obmb8WOaJMgRbE2nbq53-13" vertex="1">
          <mxGeometry y="30" width="140" height="20" as="geometry" />
        </mxCell>
        <mxCell id="Obmb8WOaJMgRbE2nbq53-15" value="client" style="text;html=1;strokeColor=none;fillColor=none;align=left;verticalAlign=middle;spacingLeft=4;spacingRight=4;overflow=hidden;rotatable=0;points=[[0,0.5],[1,0.5]];portConstraint=eastwest;" parent="Obmb8WOaJMgRbE2nbq53-13" vertex="1">
          <mxGeometry y="50" width="140" height="20" as="geometry" />
        </mxCell>
        <mxCell id="Obmb8WOaJMgRbE2nbq53-16" value="state" style="text;html=1;strokeColor=none;fillColor=none;align=left;verticalAlign=middle;spacingLeft=4;spacingRight=4;overflow=hidden;rotatable=0;points=[[0,0.5],[1,0.5]];portConstraint=eastwest;" parent="Obmb8WOaJMgRbE2nbq53-13" vertex="1">
          <mxGeometry y="70" width="140" height="20" as="geometry" />
        </mxCell>
        <mxCell id="Obmb8WOaJMgRbE2nbq53-17" value="subState" style="text;html=1;strokeColor=none;fillColor=none;align=left;verticalAlign=middle;spacingLeft=4;spacingRight=4;overflow=hidden;rotatable=0;points=[[0,0.5],[1,0.5]];portConstraint=eastwest;" parent="Obmb8WOaJMgRbE2nbq53-13" vertex="1">
          <mxGeometry y="90" width="140" height="20" as="geometry" />
        </mxCell>
        <mxCell id="Obmb8WOaJMgRbE2nbq53-18" value="mqttApi_t *apiHead" style="text;html=1;strokeColor=none;fillColor=none;align=left;verticalAlign=middle;spacingLeft=4;spacingRight=4;overflow=hidden;rotatable=0;points=[[0,0.5],[1,0.5]];portConstraint=eastwest;" parent="Obmb8WOaJMgRbE2nbq53-13" vertex="1">
          <mxGeometry y="110" width="140" height="20" as="geometry" />
        </mxCell>
        <mxCell id="Obmb8WOaJMgRbE2nbq53-19" value="activeTime" style="text;html=1;strokeColor=none;fillColor=none;align=left;verticalAlign=middle;spacingLeft=4;spacingRight=4;overflow=hidden;rotatable=0;points=[[0,0.5],[1,0.5]];portConstraint=eastwest;" parent="Obmb8WOaJMgRbE2nbq53-13" vertex="1">
          <mxGeometry y="130" width="140" height="20" as="geometry" />
        </mxCell>
        <mxCell id="Obmb8WOaJMgRbE2nbq53-20" value="connectApi" style="text;html=1;strokeColor=none;fillColor=none;align=left;verticalAlign=middle;spacingLeft=4;spacingRight=4;overflow=hidden;rotatable=0;points=[[0,0.5],[1,0.5]];portConstraint=eastwest;" parent="Obmb8WOaJMgRbE2nbq53-13" vertex="1">
          <mxGeometry y="150" width="140" height="20" as="geometry" />
        </mxCell>
        <mxCell id="Obmb8WOaJMgRbE2nbq53-21" value="reportApi" style="text;html=1;strokeColor=none;fillColor=none;align=left;verticalAlign=middle;spacingLeft=4;spacingRight=4;overflow=hidden;rotatable=0;points=[[0,0.5],[1,0.5]];portConstraint=eastwest;" parent="Obmb8WOaJMgRbE2nbq53-13" vertex="1">
          <mxGeometry y="170" width="140" height="20" as="geometry" />
        </mxCell>
        <mxCell id="Obmb8WOaJMgRbE2nbq53-22" value="securityMode" style="text;html=1;strokeColor=none;fillColor=none;align=left;verticalAlign=middle;spacingLeft=4;spacingRight=4;overflow=hidden;rotatable=0;points=[[0,0.5],[1,0.5]];portConstraint=eastwest;" parent="Obmb8WOaJMgRbE2nbq53-13" vertex="1">
          <mxGeometry y="190" width="140" height="20" as="geometry" />
        </mxCell>
        <mxCell id="Obmb8WOaJMgRbE2nbq53-23" value="" style="line;strokeWidth=1;fillColor=none;align=left;verticalAlign=middle;spacingTop=-1;spacingLeft=3;spacingRight=3;rotatable=0;labelPosition=right;points=[];portConstraint=eastwest;" parent="Obmb8WOaJMgRbE2nbq53-13" vertex="1">
          <mxGeometry y="210" width="140" height="8" as="geometry" />
        </mxCell>
        <mxCell id="Obmb8WOaJMgRbE2nbq53-24" value="none" style="text;html=1;strokeColor=none;fillColor=none;align=left;verticalAlign=middle;spacingLeft=4;spacingRight=4;overflow=hidden;rotatable=0;points=[[0,0.5],[1,0.5]];portConstraint=eastwest;" parent="Obmb8WOaJMgRbE2nbq53-13" vertex="1">
          <mxGeometry y="218" width="140" height="20" as="geometry" />
        </mxCell>
        <mxCell id="Obmb8WOaJMgRbE2nbq53-26" value="client" style="swimlane;fontStyle=0;align=center;verticalAlign=top;childLayout=stackLayout;horizontal=1;startSize=30;horizontalStack=0;resizeParent=1;resizeParentMax=0;resizeLast=0;collapsible=0;marginBottom=0;html=1;" parent="1yV7QQraYtUZ5eV9TniR-1" vertex="1">
          <mxGeometry x="70" y="1618" width="140" height="138" as="geometry" />
        </mxCell>
        <mxCell id="Obmb8WOaJMgRbE2nbq53-27" value="mqttHandle_t handle" style="text;html=1;strokeColor=none;fillColor=none;align=left;verticalAlign=middle;spacingLeft=4;spacingRight=4;overflow=hidden;rotatable=0;points=[[0,0.5],[1,0.5]];portConstraint=eastwest;" parent="Obmb8WOaJMgRbE2nbq53-26" vertex="1">
          <mxGeometry y="30" width="140" height="20" as="geometry" />
        </mxCell>
        <mxCell id="Obmb8WOaJMgRbE2nbq53-28" value="connected" style="text;html=1;strokeColor=none;fillColor=none;align=left;verticalAlign=middle;spacingLeft=4;spacingRight=4;overflow=hidden;rotatable=0;points=[[0,0.5],[1,0.5]];portConstraint=eastwest;" parent="Obmb8WOaJMgRbE2nbq53-26" vertex="1">
          <mxGeometry y="50" width="140" height="20" as="geometry" />
        </mxCell>
        <mxCell id="Obmb8WOaJMgRbE2nbq53-29" value="subscribed" style="text;html=1;strokeColor=none;fillColor=none;align=left;verticalAlign=middle;spacingLeft=4;spacingRight=4;overflow=hidden;rotatable=0;points=[[0,0.5],[1,0.5]];portConstraint=eastwest;" parent="Obmb8WOaJMgRbE2nbq53-26" vertex="1">
          <mxGeometry y="70" width="140" height="20" as="geometry" />
        </mxCell>
        <mxCell id="Obmb8WOaJMgRbE2nbq53-30" value="reconnectTime" style="text;html=1;strokeColor=none;fillColor=none;align=left;verticalAlign=middle;spacingLeft=4;spacingRight=4;overflow=hidden;rotatable=0;points=[[0,0.5],[1,0.5]];portConstraint=eastwest;" parent="Obmb8WOaJMgRbE2nbq53-26" vertex="1">
          <mxGeometry y="90" width="140" height="20" as="geometry" />
        </mxCell>
        <mxCell id="Obmb8WOaJMgRbE2nbq53-31" value="" style="line;strokeWidth=1;fillColor=none;align=left;verticalAlign=middle;spacingTop=-1;spacingLeft=3;spacingRight=3;rotatable=0;labelPosition=right;points=[];portConstraint=eastwest;" parent="Obmb8WOaJMgRbE2nbq53-26" vertex="1">
          <mxGeometry y="110" width="140" height="8" as="geometry" />
        </mxCell>
        <mxCell id="Obmb8WOaJMgRbE2nbq53-32" value="none" style="text;html=1;strokeColor=none;fillColor=none;align=left;verticalAlign=middle;spacingLeft=4;spacingRight=4;overflow=hidden;rotatable=0;points=[[0,0.5],[1,0.5]];portConstraint=eastwest;" parent="Obmb8WOaJMgRbE2nbq53-26" vertex="1">
          <mxGeometry y="118" width="140" height="20" as="geometry" />
        </mxCell>
        <mxCell id="Obmb8WOaJMgRbE2nbq53-33" value="mqttApi_t" style="swimlane;fontStyle=0;align=center;verticalAlign=top;childLayout=stackLayout;horizontal=1;startSize=30;horizontalStack=0;resizeParent=1;resizeParentMax=0;resizeLast=0;collapsible=0;marginBottom=0;html=1;" parent="1yV7QQraYtUZ5eV9TniR-1" vertex="1">
          <mxGeometry x="345" y="1451" width="140" height="238" as="geometry" />
        </mxCell>
        <mxCell id="Obmb8WOaJMgRbE2nbq53-34" value="priv" style="text;html=1;strokeColor=none;fillColor=none;align=left;verticalAlign=middle;spacingLeft=4;spacingRight=4;overflow=hidden;rotatable=0;points=[[0,0.5],[1,0.5]];portConstraint=eastwest;" parent="Obmb8WOaJMgRbE2nbq53-33" vertex="1">
          <mxGeometry y="30" width="140" height="20" as="geometry" />
        </mxCell>
        <mxCell id="Obmb8WOaJMgRbE2nbq53-35" value="mqttApiData_t *data" style="text;html=1;strokeColor=none;fillColor=none;align=left;verticalAlign=middle;spacingLeft=4;spacingRight=4;overflow=hidden;rotatable=0;points=[[0,0.5],[1,0.5]];portConstraint=eastwest;" parent="Obmb8WOaJMgRbE2nbq53-33" vertex="1">
          <mxGeometry y="50" width="140" height="20" as="geometry" />
        </mxCell>
        <mxCell id="Obmb8WOaJMgRbE2nbq53-36" value="session" style="text;html=1;strokeColor=none;fillColor=none;align=left;verticalAlign=middle;spacingLeft=4;spacingRight=4;overflow=hidden;rotatable=0;points=[[0,0.5],[1,0.5]];portConstraint=eastwest;" parent="Obmb8WOaJMgRbE2nbq53-33" vertex="1">
          <mxGeometry y="70" width="140" height="20" as="geometry" />
        </mxCell>
        <mxCell id="Obmb8WOaJMgRbE2nbq53-37" value="state" style="text;html=1;strokeColor=none;fillColor=none;align=left;verticalAlign=middle;spacingLeft=4;spacingRight=4;overflow=hidden;rotatable=0;points=[[0,0.5],[1,0.5]];portConstraint=eastwest;" parent="Obmb8WOaJMgRbE2nbq53-33" vertex="1">
          <mxGeometry y="90" width="140" height="20" as="geometry" />
        </mxCell>
        <mxCell id="Obmb8WOaJMgRbE2nbq53-38" value="response" style="text;html=1;strokeColor=none;fillColor=none;align=left;verticalAlign=middle;spacingLeft=4;spacingRight=4;overflow=hidden;rotatable=0;points=[[0,0.5],[1,0.5]];portConstraint=eastwest;" parent="Obmb8WOaJMgRbE2nbq53-33" vertex="1">
          <mxGeometry y="110" width="140" height="20" as="geometry" />
        </mxCell>
        <mxCell id="Obmb8WOaJMgRbE2nbq53-39" value="activeTime" style="text;html=1;strokeColor=none;fillColor=none;align=left;verticalAlign=middle;spacingLeft=4;spacingRight=4;overflow=hidden;rotatable=0;points=[[0,0.5],[1,0.5]];portConstraint=eastwest;" parent="Obmb8WOaJMgRbE2nbq53-33" vertex="1">
          <mxGeometry y="130" width="140" height="20" as="geometry" />
        </mxCell>
        <mxCell id="Obmb8WOaJMgRbE2nbq53-40" value="expiredTime" style="text;html=1;strokeColor=none;fillColor=none;align=left;verticalAlign=middle;spacingLeft=4;spacingRight=4;overflow=hidden;rotatable=0;points=[[0,0.5],[1,0.5]];portConstraint=eastwest;" parent="Obmb8WOaJMgRbE2nbq53-33" vertex="1">
          <mxGeometry y="150" width="140" height="20" as="geometry" />
        </mxCell>
        <mxCell id="Obmb8WOaJMgRbE2nbq53-41" value="finishTime" style="text;html=1;strokeColor=none;fillColor=none;align=left;verticalAlign=middle;spacingLeft=4;spacingRight=4;overflow=hidden;rotatable=0;points=[[0,0.5],[1,0.5]];portConstraint=eastwest;" parent="Obmb8WOaJMgRbE2nbq53-33" vertex="1">
          <mxGeometry y="170" width="140" height="20" as="geometry" />
        </mxCell>
        <mxCell id="Obmb8WOaJMgRbE2nbq53-42" value="next" style="text;html=1;strokeColor=none;fillColor=none;align=left;verticalAlign=middle;spacingLeft=4;spacingRight=4;overflow=hidden;rotatable=0;points=[[0,0.5],[1,0.5]];portConstraint=eastwest;" parent="Obmb8WOaJMgRbE2nbq53-33" vertex="1">
          <mxGeometry y="190" width="140" height="20" as="geometry" />
        </mxCell>
        <mxCell id="Obmb8WOaJMgRbE2nbq53-43" value="" style="line;strokeWidth=1;fillColor=none;align=left;verticalAlign=middle;spacingTop=-1;spacingLeft=3;spacingRight=3;rotatable=0;labelPosition=right;points=[];portConstraint=eastwest;" parent="Obmb8WOaJMgRbE2nbq53-33" vertex="1">
          <mxGeometry y="210" width="140" height="8" as="geometry" />
        </mxCell>
        <mxCell id="Obmb8WOaJMgRbE2nbq53-44" value="none" style="text;html=1;strokeColor=none;fillColor=none;align=left;verticalAlign=middle;spacingLeft=4;spacingRight=4;overflow=hidden;rotatable=0;points=[[0,0.5],[1,0.5]];portConstraint=eastwest;" parent="Obmb8WOaJMgRbE2nbq53-33" vertex="1">
          <mxGeometry y="218" width="140" height="20" as="geometry" />
        </mxCell>
        <mxCell id="Obmb8WOaJMgRbE2nbq53-45" value="mqttClient_t" style="swimlane;fontStyle=0;align=center;verticalAlign=top;childLayout=stackLayout;horizontal=1;startSize=30;horizontalStack=0;resizeParent=1;resizeParentMax=0;resizeLast=0;collapsible=0;marginBottom=0;html=1;" parent="1yV7QQraYtUZ5eV9TniR-1" vertex="1">
          <mxGeometry x="319" y="1756" width="196" height="218" as="geometry" />
        </mxCell>
        <mxCell id="Obmb8WOaJMgRbE2nbq53-46" value="&lt;div style=&quot;color: rgb(212 , 212 , 212) ; background-color: rgb(30 , 30 , 30) ; font-family: &amp;#34;consolas&amp;#34; , &amp;#34;courier new&amp;#34; , monospace ; font-size: 14px ; line-height: 19px&quot;&gt;&lt;span style=&quot;color: #4ec9b0&quot;&gt;mqttConnect_t&lt;/span&gt; &lt;span style=&quot;color: #9cdcfe&quot;&gt;request&lt;/span&gt;&lt;/div&gt;" style="text;html=1;strokeColor=none;fillColor=none;align=left;verticalAlign=middle;spacingLeft=4;spacingRight=4;overflow=hidden;rotatable=0;points=[[0,0.5],[1,0.5]];portConstraint=eastwest;" parent="Obmb8WOaJMgRbE2nbq53-45" vertex="1">
          <mxGeometry y="30" width="196" height="20" as="geometry" />
        </mxCell>
        <mxCell id="Obmb8WOaJMgRbE2nbq53-47" value="state" style="text;html=1;strokeColor=none;fillColor=none;align=left;verticalAlign=middle;spacingLeft=4;spacingRight=4;overflow=hidden;rotatable=0;points=[[0,0.5],[1,0.5]];portConstraint=eastwest;" parent="Obmb8WOaJMgRbE2nbq53-45" vertex="1">
          <mxGeometry y="50" width="196" height="20" as="geometry" />
        </mxCell>
        <mxCell id="Obmb8WOaJMgRbE2nbq53-48" value="connectFailed" style="text;html=1;strokeColor=none;fillColor=none;align=left;verticalAlign=middle;spacingLeft=4;spacingRight=4;overflow=hidden;rotatable=0;points=[[0,0.5],[1,0.5]];portConstraint=eastwest;" parent="Obmb8WOaJMgRbE2nbq53-45" vertex="1">
          <mxGeometry y="70" width="196" height="20" as="geometry" />
        </mxCell>
        <mxCell id="Obmb8WOaJMgRbE2nbq53-49" value="connected" style="text;html=1;strokeColor=none;fillColor=none;align=left;verticalAlign=middle;spacingLeft=4;spacingRight=4;overflow=hidden;rotatable=0;points=[[0,0.5],[1,0.5]];portConstraint=eastwest;" parent="Obmb8WOaJMgRbE2nbq53-45" vertex="1">
          <mxGeometry y="90" width="196" height="20" as="geometry" />
        </mxCell>
        <mxCell id="Obmb8WOaJMgRbE2nbq53-50" value="subscribed" style="text;html=1;strokeColor=none;fillColor=none;align=left;verticalAlign=middle;spacingLeft=4;spacingRight=4;overflow=hidden;rotatable=0;points=[[0,0.5],[1,0.5]];portConstraint=eastwest;" parent="Obmb8WOaJMgRbE2nbq53-45" vertex="1">
          <mxGeometry y="110" width="196" height="20" as="geometry" />
        </mxCell>
        <mxCell id="Obmb8WOaJMgRbE2nbq53-51" value="MQTTAsync mqttHandle" style="text;html=1;strokeColor=none;fillColor=none;align=left;verticalAlign=middle;spacingLeft=4;spacingRight=4;overflow=hidden;rotatable=0;points=[[0,0.5],[1,0.5]];portConstraint=eastwest;" parent="Obmb8WOaJMgRbE2nbq53-45" vertex="1">
          <mxGeometry y="130" width="196" height="20" as="geometry" />
        </mxCell>
        <mxCell id="Obmb8WOaJMgRbE2nbq53-52" value="localPipe" style="text;html=1;strokeColor=none;fillColor=none;align=left;verticalAlign=middle;spacingLeft=4;spacingRight=4;overflow=hidden;rotatable=0;points=[[0,0.5],[1,0.5]];portConstraint=eastwest;" parent="Obmb8WOaJMgRbE2nbq53-45" vertex="1">
          <mxGeometry y="150" width="196" height="20" as="geometry" />
        </mxCell>
        <mxCell id="Obmb8WOaJMgRbE2nbq53-53" value="struct uloop_fd sock" style="text;html=1;strokeColor=none;fillColor=none;align=left;verticalAlign=middle;spacingLeft=4;spacingRight=4;overflow=hidden;rotatable=0;points=[[0,0.5],[1,0.5]];portConstraint=eastwest;" parent="Obmb8WOaJMgRbE2nbq53-45" vertex="1">
          <mxGeometry y="170" width="196" height="20" as="geometry" />
        </mxCell>
        <mxCell id="Obmb8WOaJMgRbE2nbq53-54" value="" style="line;strokeWidth=1;fillColor=none;align=left;verticalAlign=middle;spacingTop=-1;spacingLeft=3;spacingRight=3;rotatable=0;labelPosition=right;points=[];portConstraint=eastwest;" parent="Obmb8WOaJMgRbE2nbq53-45" vertex="1">
          <mxGeometry y="190" width="196" height="8" as="geometry" />
        </mxCell>
        <mxCell id="Obmb8WOaJMgRbE2nbq53-55" value="none" style="text;html=1;strokeColor=none;fillColor=none;align=left;verticalAlign=middle;spacingLeft=4;spacingRight=4;overflow=hidden;rotatable=0;points=[[0,0.5],[1,0.5]];portConstraint=eastwest;" parent="Obmb8WOaJMgRbE2nbq53-45" vertex="1">
          <mxGeometry y="198" width="196" height="20" as="geometry" />
        </mxCell>
        <mxCell id="wgbNpAm8z0DBSZ99RHfa-0" value="" style="endArrow=classic;html=1;entryX=0;entryY=0;entryDx=0;entryDy=0;exitX=1;exitY=0.5;exitDx=0;exitDy=0;" parent="1yV7QQraYtUZ5eV9TniR-1" source="Obmb8WOaJMgRbE2nbq53-29" target="Obmb8WOaJMgRbE2nbq53-45" edge="1">
          <mxGeometry relative="1" as="geometry">
            <mxPoint x="120" y="1840" as="sourcePoint" />
            <mxPoint x="220" y="1840" as="targetPoint" />
          </mxGeometry>
        </mxCell>
        <mxCell id="wgbNpAm8z0DBSZ99RHfa-1" value="handle" style="edgeLabel;resizable=0;html=1;align=center;verticalAlign=middle;" parent="wgbNpAm8z0DBSZ99RHfa-0" connectable="0" vertex="1">
          <mxGeometry relative="1" as="geometry" />
        </mxCell>
        <mxCell id="v0aoXtv6Ba74MHJw_p0d-0" value="&lt;div style=&quot;color: rgb(212 , 212 , 212) ; background-color: rgb(30 , 30 , 30) ; font-family: &amp;#34;consolas&amp;#34; , &amp;#34;courier new&amp;#34; , monospace ; font-size: 14px ; line-height: 19px&quot;&gt;&lt;span style=&quot;color: #4ec9b0&quot;&gt;mqttApiReport_t&lt;/span&gt;&lt;/div&gt;" style="swimlane;fontStyle=0;align=center;verticalAlign=top;childLayout=stackLayout;horizontal=1;startSize=30;horizontalStack=0;resizeParent=1;resizeParentMax=0;resizeLast=0;collapsible=0;marginBottom=0;html=1;" parent="1yV7QQraYtUZ5eV9TniR-1" vertex="1">
          <mxGeometry x="60" y="1960" width="196" height="198" as="geometry" />
        </mxCell>
        <mxCell id="v0aoXtv6Ba74MHJw_p0d-1" value="&lt;div style=&quot;color: rgb(212 , 212 , 212) ; background-color: rgb(30 , 30 , 30) ; font-family: &amp;#34;consolas&amp;#34; , &amp;#34;courier new&amp;#34; , monospace ; font-size: 14px ; line-height: 19px&quot;&gt;&lt;div style=&quot;font-family: &amp;#34;consolas&amp;#34; , &amp;#34;courier new&amp;#34; , monospace ; line-height: 19px&quot;&gt;&lt;span style=&quot;color: #4ec9b0&quot;&gt;mqttAgent_t&lt;/span&gt; *&lt;span style=&quot;color: #9cdcfe&quot;&gt;agent&lt;/span&gt;&lt;/div&gt;&lt;/div&gt;" style="text;html=1;strokeColor=none;fillColor=none;align=left;verticalAlign=middle;spacingLeft=4;spacingRight=4;overflow=hidden;rotatable=0;points=[[0,0.5],[1,0.5]];portConstraint=eastwest;" parent="v0aoXtv6Ba74MHJw_p0d-0" vertex="1">
          <mxGeometry y="30" width="196" height="20" as="geometry" />
        </mxCell>
        <mxCell id="v0aoXtv6Ba74MHJw_p0d-2" value="&lt;div style=&quot;color: rgb(212 , 212 , 212) ; background-color: rgb(30 , 30 , 30) ; font-family: &amp;#34;consolas&amp;#34; , &amp;#34;courier new&amp;#34; , monospace ; font-size: 14px ; line-height: 19px&quot;&gt;&lt;span style=&quot;color: #4ec9b0&quot;&gt;mqttApi_t&lt;/span&gt; *&lt;span style=&quot;color: #9cdcfe&quot;&gt;api&lt;/span&gt;&lt;/div&gt;" style="text;html=1;strokeColor=none;fillColor=none;align=left;verticalAlign=middle;spacingLeft=4;spacingRight=4;overflow=hidden;rotatable=0;points=[[0,0.5],[1,0.5]];portConstraint=eastwest;" parent="v0aoXtv6Ba74MHJw_p0d-0" vertex="1">
          <mxGeometry y="50" width="196" height="20" as="geometry" />
        </mxCell>
        <mxCell id="v0aoXtv6Ba74MHJw_p0d-3" value="&lt;div style=&quot;color: rgb(212 , 212 , 212) ; background-color: rgb(30 , 30 , 30) ; font-family: &amp;#34;consolas&amp;#34; , &amp;#34;courier new&amp;#34; , monospace ; font-size: 14px ; line-height: 19px&quot;&gt;&lt;span style=&quot;color: #569cd6&quot;&gt;void&lt;/span&gt; *&lt;span style=&quot;color: #9cdcfe&quot;&gt;dataJson&lt;/span&gt;&lt;/div&gt;" style="text;html=1;strokeColor=none;fillColor=none;align=left;verticalAlign=middle;spacingLeft=4;spacingRight=4;overflow=hidden;rotatable=0;points=[[0,0.5],[1,0.5]];portConstraint=eastwest;" parent="v0aoXtv6Ba74MHJw_p0d-0" vertex="1">
          <mxGeometry y="70" width="196" height="20" as="geometry" />
        </mxCell>
        <mxCell id="v0aoXtv6Ba74MHJw_p0d-4" value="&lt;div style=&quot;color: rgb(212 , 212 , 212) ; background-color: rgb(30 , 30 , 30) ; font-family: &amp;#34;consolas&amp;#34; , &amp;#34;courier new&amp;#34; , monospace ; font-size: 14px ; line-height: 19px&quot;&gt;&lt;span style=&quot;color: #569cd6&quot;&gt;char&lt;/span&gt; *&lt;span style=&quot;color: #9cdcfe&quot;&gt;topic&lt;/span&gt;&lt;/div&gt;" style="text;html=1;strokeColor=none;fillColor=none;align=left;verticalAlign=middle;spacingLeft=4;spacingRight=4;overflow=hidden;rotatable=0;points=[[0,0.5],[1,0.5]];portConstraint=eastwest;" parent="v0aoXtv6Ba74MHJw_p0d-0" vertex="1">
          <mxGeometry y="90" width="196" height="20" as="geometry" />
        </mxCell>
        <mxCell id="v0aoXtv6Ba74MHJw_p0d-5" value="&lt;div style=&quot;color: rgb(212 , 212 , 212) ; background-color: rgb(30 , 30 , 30) ; font-family: &amp;#34;consolas&amp;#34; , &amp;#34;courier new&amp;#34; , monospace ; font-size: 14px ; line-height: 19px&quot;&gt;&lt;span style=&quot;color: #4ec9b0&quot;&gt;mqttApiData_t&lt;/span&gt; &lt;span style=&quot;color: #9cdcfe&quot;&gt;apiData&lt;/span&gt;&lt;/div&gt;" style="text;html=1;strokeColor=none;fillColor=none;align=left;verticalAlign=middle;spacingLeft=4;spacingRight=4;overflow=hidden;rotatable=0;points=[[0,0.5],[1,0.5]];portConstraint=eastwest;" parent="v0aoXtv6Ba74MHJw_p0d-0" vertex="1">
          <mxGeometry y="110" width="196" height="20" as="geometry" />
        </mxCell>
        <mxCell id="v0aoXtv6Ba74MHJw_p0d-6" value="&lt;div style=&quot;color: rgb(212 , 212 , 212) ; background-color: rgb(30 , 30 , 30) ; font-family: &amp;#34;consolas&amp;#34; , &amp;#34;courier new&amp;#34; , monospace ; font-size: 14px ; line-height: 19px&quot;&gt;&lt;span style=&quot;color: #569cd6&quot;&gt;char&lt;/span&gt; *&lt;span style=&quot;color: #9cdcfe&quot;&gt;requestData&lt;/span&gt;&lt;/div&gt;" style="text;html=1;strokeColor=none;fillColor=none;align=left;verticalAlign=middle;spacingLeft=4;spacingRight=4;overflow=hidden;rotatable=0;points=[[0,0.5],[1,0.5]];portConstraint=eastwest;" parent="v0aoXtv6Ba74MHJw_p0d-0" vertex="1">
          <mxGeometry y="130" width="196" height="20" as="geometry" />
        </mxCell>
        <mxCell id="v0aoXtv6Ba74MHJw_p0d-7" value="&lt;div style=&quot;color: rgb(212 , 212 , 212) ; background-color: rgb(30 , 30 , 30) ; font-family: &amp;#34;consolas&amp;#34; , &amp;#34;courier new&amp;#34; , monospace ; font-size: 14px ; line-height: 19px&quot;&gt;&lt;span style=&quot;color: #569cd6&quot;&gt;int&lt;/span&gt; &lt;span style=&quot;color: #9cdcfe&quot;&gt;requestDataSize&lt;/span&gt;&lt;/div&gt;" style="text;html=1;strokeColor=none;fillColor=none;align=left;verticalAlign=middle;spacingLeft=4;spacingRight=4;overflow=hidden;rotatable=0;points=[[0,0.5],[1,0.5]];portConstraint=eastwest;" parent="v0aoXtv6Ba74MHJw_p0d-0" vertex="1">
          <mxGeometry y="150" width="196" height="20" as="geometry" />
        </mxCell>
        <mxCell id="v0aoXtv6Ba74MHJw_p0d-9" value="" style="line;strokeWidth=1;fillColor=none;align=left;verticalAlign=middle;spacingTop=-1;spacingLeft=3;spacingRight=3;rotatable=0;labelPosition=right;points=[];portConstraint=eastwest;" parent="v0aoXtv6Ba74MHJw_p0d-0" vertex="1">
          <mxGeometry y="170" width="196" height="8" as="geometry" />
        </mxCell>
        <mxCell id="v0aoXtv6Ba74MHJw_p0d-10" value="none" style="text;html=1;strokeColor=none;fillColor=none;align=left;verticalAlign=middle;spacingLeft=4;spacingRight=4;overflow=hidden;rotatable=0;points=[[0,0.5],[1,0.5]];portConstraint=eastwest;" parent="v0aoXtv6Ba74MHJw_p0d-0" vertex="1">
          <mxGeometry y="178" width="196" height="20" as="geometry" />
        </mxCell>
      </root>
    </mxGraphModel>
  </diagram>
  <diagram id="2xWPizN3MzcZfrx5bOjW" name="camera">
    <mxGraphModel dx="1434" dy="763" grid="1" gridSize="10" guides="1" tooltips="1" connect="1" arrows="1" fold="1" page="1" pageScale="1" pageWidth="827" pageHeight="1169" math="0" shadow="0">
      <root>
        <mxCell id="JrBuHlUM8WIBevHFSA1V-0" />
        <mxCell id="JrBuHlUM8WIBevHFSA1V-1" parent="JrBuHlUM8WIBevHFSA1V-0" />
        <mxCell id="sr_ZIATrA0t1yDz9LLTw-0" value="" style="endArrow=none;dashed=1;html=1;" parent="JrBuHlUM8WIBevHFSA1V-1" edge="1">
          <mxGeometry width="50" height="50" relative="1" as="geometry">
            <mxPoint x="390" y="430" as="sourcePoint" />
            <mxPoint x="390" y="120" as="targetPoint" />
          </mxGeometry>
        </mxCell>
        <mxCell id="sr_ZIATrA0t1yDz9LLTw-1" value="" style="endArrow=none;dashed=1;html=1;" parent="JrBuHlUM8WIBevHFSA1V-1" edge="1">
          <mxGeometry width="50" height="50" relative="1" as="geometry">
            <mxPoint x="530" y="430" as="sourcePoint" />
            <mxPoint x="530" y="120" as="targetPoint" />
          </mxGeometry>
        </mxCell>
        <mxCell id="sr_ZIATrA0t1yDz9LLTw-4" value="" style="endArrow=classic;html=1;" parent="JrBuHlUM8WIBevHFSA1V-1" edge="1">
          <mxGeometry width="50" height="50" relative="1" as="geometry">
            <mxPoint x="390" y="240" as="sourcePoint" />
            <mxPoint x="530" y="240" as="targetPoint" />
          </mxGeometry>
        </mxCell>
        <mxCell id="sr_ZIATrA0t1yDz9LLTw-5" value="get n pieces of picture name" style="text;html=1;strokeColor=none;fillColor=none;align=center;verticalAlign=middle;whiteSpace=wrap;rounded=0;" parent="JrBuHlUM8WIBevHFSA1V-1" vertex="1">
          <mxGeometry x="414" y="140" width="96" height="30" as="geometry" />
        </mxCell>
        <mxCell id="sr_ZIATrA0t1yDz9LLTw-6" value="return n strip of&amp;nbsp; picture name" style="text;html=1;strokeColor=none;fillColor=none;align=center;verticalAlign=middle;whiteSpace=wrap;rounded=0;" parent="JrBuHlUM8WIBevHFSA1V-1" vertex="1">
          <mxGeometry x="414" y="210" width="96" height="30" as="geometry" />
        </mxCell>
        <mxCell id="sr_ZIATrA0t1yDz9LLTw-7" value="" style="endArrow=classic;html=1;" parent="JrBuHlUM8WIBevHFSA1V-1" edge="1">
          <mxGeometry width="50" height="50" relative="1" as="geometry">
            <mxPoint x="530" y="310" as="sourcePoint" />
            <mxPoint x="390" y="310" as="targetPoint" />
          </mxGeometry>
        </mxCell>
        <mxCell id="sr_ZIATrA0t1yDz9LLTw-8" value="cgi_download" style="text;html=1;strokeColor=none;fillColor=none;align=center;verticalAlign=middle;whiteSpace=wrap;rounded=0;" parent="JrBuHlUM8WIBevHFSA1V-1" vertex="1">
          <mxGeometry x="414" y="270" width="96" height="30" as="geometry" />
        </mxCell>
        <mxCell id="sr_ZIATrA0t1yDz9LLTw-9" value="web" style="text;html=1;strokeColor=none;fillColor=none;align=center;verticalAlign=middle;whiteSpace=wrap;rounded=0;" parent="JrBuHlUM8WIBevHFSA1V-1" vertex="1">
          <mxGeometry x="500" y="80" width="60" height="30" as="geometry" />
        </mxCell>
        <mxCell id="sr_ZIATrA0t1yDz9LLTw-10" value="" style="endArrow=classic;html=1;" parent="JrBuHlUM8WIBevHFSA1V-1" edge="1">
          <mxGeometry width="50" height="50" relative="1" as="geometry">
            <mxPoint x="530" y="170" as="sourcePoint" />
            <mxPoint x="390" y="170" as="targetPoint" />
          </mxGeometry>
        </mxCell>
      </root>
    </mxGraphModel>
  </diagram>
  <diagram id="S8wnD_KRHcp-7fAp0lOI" name="mqtt升级">
    <mxGraphModel dx="1434" dy="763" grid="1" gridSize="10" guides="1" tooltips="1" connect="1" arrows="1" fold="1" page="1" pageScale="1" pageWidth="827" pageHeight="1169" math="0" shadow="0">
      <root>
        <mxCell id="XSvAmRGnrYX8dZB1Ptjj-0" />
        <mxCell id="XSvAmRGnrYX8dZB1Ptjj-1" parent="XSvAmRGnrYX8dZB1Ptjj-0" />
        <mxCell id="whKl-DwCNihOr7DmAUu7-0" value="" style="edgeStyle=none;html=1;" parent="XSvAmRGnrYX8dZB1Ptjj-1" source="whKl-DwCNihOr7DmAUu7-1" target="whKl-DwCNihOr7DmAUu7-3" edge="1">
          <mxGeometry relative="1" as="geometry" />
        </mxCell>
        <mxCell id="whKl-DwCNihOr7DmAUu7-1" value="unknow" style="rounded=0;whiteSpace=wrap;html=1;" parent="XSvAmRGnrYX8dZB1Ptjj-1" vertex="1">
          <mxGeometry x="100" y="420" width="120" height="60" as="geometry" />
        </mxCell>
        <mxCell id="whKl-DwCNihOr7DmAUu7-2" value="" style="edgeStyle=none;html=1;" parent="XSvAmRGnrYX8dZB1Ptjj-1" source="whKl-DwCNihOr7DmAUu7-3" target="whKl-DwCNihOr7DmAUu7-25" edge="1">
          <mxGeometry relative="1" as="geometry" />
        </mxCell>
        <mxCell id="whKl-DwCNihOr7DmAUu7-3" value="start" style="whiteSpace=wrap;html=1;rounded=0;" parent="XSvAmRGnrYX8dZB1Ptjj-1" vertex="1">
          <mxGeometry x="100" y="560" width="120" height="60" as="geometry" />
        </mxCell>
        <mxCell id="whKl-DwCNihOr7DmAUu7-4" value="" style="edgeStyle=none;html=1;" parent="XSvAmRGnrYX8dZB1Ptjj-1" source="whKl-DwCNihOr7DmAUu7-5" target="whKl-DwCNihOr7DmAUu7-10" edge="1">
          <mxGeometry relative="1" as="geometry" />
        </mxCell>
        <mxCell id="whKl-DwCNihOr7DmAUu7-5" value="DOWNLOAD COMPLETE" style="whiteSpace=wrap;html=1;rounded=0;" parent="XSvAmRGnrYX8dZB1Ptjj-1" vertex="1">
          <mxGeometry x="500" y="560" width="120" height="60" as="geometry" />
        </mxCell>
        <mxCell id="whKl-DwCNihOr7DmAUu7-6" value="" style="edgeStyle=none;html=1;" parent="XSvAmRGnrYX8dZB1Ptjj-1" source="whKl-DwCNihOr7DmAUu7-7" target="whKl-DwCNihOr7DmAUu7-26" edge="1">
          <mxGeometry relative="1" as="geometry" />
        </mxCell>
        <mxCell id="whKl-DwCNihOr7DmAUu7-7" value="DOWNLOAD FAILED" style="whiteSpace=wrap;html=1;rounded=0;" parent="XSvAmRGnrYX8dZB1Ptjj-1" vertex="1">
          <mxGeometry x="300" y="420" width="120" height="60" as="geometry" />
        </mxCell>
        <mxCell id="whKl-DwCNihOr7DmAUu7-8" value="" style="edgeStyle=none;html=1;" parent="XSvAmRGnrYX8dZB1Ptjj-1" source="whKl-DwCNihOr7DmAUu7-10" target="whKl-DwCNihOr7DmAUu7-13" edge="1">
          <mxGeometry relative="1" as="geometry" />
        </mxCell>
        <mxCell id="whKl-DwCNihOr7DmAUu7-9" value="" style="edgeStyle=none;html=1;" parent="XSvAmRGnrYX8dZB1Ptjj-1" source="whKl-DwCNihOr7DmAUu7-10" target="whKl-DwCNihOr7DmAUu7-15" edge="1">
          <mxGeometry relative="1" as="geometry" />
        </mxCell>
        <mxCell id="whKl-DwCNihOr7DmAUu7-10" value="UPDATE" style="whiteSpace=wrap;html=1;rounded=0;" parent="XSvAmRGnrYX8dZB1Ptjj-1" vertex="1">
          <mxGeometry x="500" y="700" width="120" height="60" as="geometry" />
        </mxCell>
        <mxCell id="whKl-DwCNihOr7DmAUu7-11" value="" style="edgeStyle=none;html=1;" parent="XSvAmRGnrYX8dZB1Ptjj-1" source="whKl-DwCNihOr7DmAUu7-13" target="whKl-DwCNihOr7DmAUu7-17" edge="1">
          <mxGeometry relative="1" as="geometry" />
        </mxCell>
        <mxCell id="whKl-DwCNihOr7DmAUu7-12" style="edgeStyle=none;html=1;exitX=0.5;exitY=0;exitDx=0;exitDy=0;entryX=0.5;entryY=0;entryDx=0;entryDy=0;" parent="XSvAmRGnrYX8dZB1Ptjj-1" source="whKl-DwCNihOr7DmAUu7-13" target="whKl-DwCNihOr7DmAUu7-22" edge="1">
          <mxGeometry relative="1" as="geometry">
            <Array as="points">
              <mxPoint x="360" y="660" />
              <mxPoint x="50" y="660" />
              <mxPoint x="50" y="240" />
              <mxPoint x="360" y="240" />
            </Array>
          </mxGeometry>
        </mxCell>
        <mxCell id="whKl-DwCNihOr7DmAUu7-13" value="UPDATE SUCCESS" style="whiteSpace=wrap;html=1;rounded=0;" parent="XSvAmRGnrYX8dZB1Ptjj-1" vertex="1">
          <mxGeometry x="300" y="700" width="120" height="60" as="geometry" />
        </mxCell>
        <mxCell id="whKl-DwCNihOr7DmAUu7-14" style="edgeStyle=none;html=1;exitX=0.5;exitY=0;exitDx=0;exitDy=0;entryX=1;entryY=0.5;entryDx=0;entryDy=0;" parent="XSvAmRGnrYX8dZB1Ptjj-1" source="whKl-DwCNihOr7DmAUu7-15" target="whKl-DwCNihOr7DmAUu7-22" edge="1">
          <mxGeometry relative="1" as="geometry">
            <Array as="points">
              <mxPoint x="760" y="310" />
              <mxPoint x="590" y="310" />
            </Array>
          </mxGeometry>
        </mxCell>
        <mxCell id="whKl-DwCNihOr7DmAUu7-15" value="UPDATE FAILED" style="whiteSpace=wrap;html=1;rounded=0;" parent="XSvAmRGnrYX8dZB1Ptjj-1" vertex="1">
          <mxGeometry x="700" y="700" width="120" height="60" as="geometry" />
        </mxCell>
        <mxCell id="whKl-DwCNihOr7DmAUu7-16" value="" style="edgeStyle=none;html=1;" parent="XSvAmRGnrYX8dZB1Ptjj-1" source="whKl-DwCNihOr7DmAUu7-17" target="whKl-DwCNihOr7DmAUu7-19" edge="1">
          <mxGeometry relative="1" as="geometry" />
        </mxCell>
        <mxCell id="whKl-DwCNihOr7DmAUu7-17" value="REBOOT" style="whiteSpace=wrap;html=1;rounded=0;" parent="XSvAmRGnrYX8dZB1Ptjj-1" vertex="1">
          <mxGeometry x="100" y="700" width="120" height="60" as="geometry" />
        </mxCell>
        <mxCell id="whKl-DwCNihOr7DmAUu7-18" value="" style="edgeStyle=none;html=1;" parent="XSvAmRGnrYX8dZB1Ptjj-1" source="whKl-DwCNihOr7DmAUu7-19" target="whKl-DwCNihOr7DmAUu7-20" edge="1">
          <mxGeometry relative="1" as="geometry" />
        </mxCell>
        <mxCell id="whKl-DwCNihOr7DmAUu7-19" value="更新升级状态（从文件读取状态）" style="whiteSpace=wrap;html=1;rounded=0;" parent="XSvAmRGnrYX8dZB1Ptjj-1" vertex="1">
          <mxGeometry x="100" y="840" width="120" height="60" as="geometry" />
        </mxCell>
        <mxCell id="whKl-DwCNihOr7DmAUu7-20" value="平台调用接口获取升级状态" style="whiteSpace=wrap;html=1;rounded=0;" parent="XSvAmRGnrYX8dZB1Ptjj-1" vertex="1">
          <mxGeometry x="300" y="840" width="120" height="60" as="geometry" />
        </mxCell>
        <mxCell id="whKl-DwCNihOr7DmAUu7-21" style="edgeStyle=none;html=1;entryX=0.5;entryY=0;entryDx=0;entryDy=0;" parent="XSvAmRGnrYX8dZB1Ptjj-1" source="whKl-DwCNihOr7DmAUu7-22" target="whKl-DwCNihOr7DmAUu7-1" edge="1">
          <mxGeometry relative="1" as="geometry">
            <Array as="points">
              <mxPoint x="160" y="310" />
            </Array>
          </mxGeometry>
        </mxCell>
        <mxCell id="whKl-DwCNihOr7DmAUu7-22" value="记录升级状态到文件" style="whiteSpace=wrap;html=1;rounded=0;" parent="XSvAmRGnrYX8dZB1Ptjj-1" vertex="1">
          <mxGeometry x="300" y="280" width="120" height="60" as="geometry" />
        </mxCell>
        <mxCell id="whKl-DwCNihOr7DmAUu7-23" value="" style="edgeStyle=none;html=1;" parent="XSvAmRGnrYX8dZB1Ptjj-1" source="whKl-DwCNihOr7DmAUu7-25" target="whKl-DwCNihOr7DmAUu7-5" edge="1">
          <mxGeometry relative="1" as="geometry" />
        </mxCell>
        <mxCell id="whKl-DwCNihOr7DmAUu7-24" value="" style="edgeStyle=none;html=1;" parent="XSvAmRGnrYX8dZB1Ptjj-1" source="whKl-DwCNihOr7DmAUu7-25" target="whKl-DwCNihOr7DmAUu7-7" edge="1">
          <mxGeometry relative="1" as="geometry" />
        </mxCell>
        <mxCell id="whKl-DwCNihOr7DmAUu7-25" value="&lt;span&gt;DOWNLOADING&lt;/span&gt;" style="whiteSpace=wrap;html=1;rounded=0;" parent="XSvAmRGnrYX8dZB1Ptjj-1" vertex="1">
          <mxGeometry x="300" y="560" width="120" height="60" as="geometry" />
        </mxCell>
        <mxCell id="whKl-DwCNihOr7DmAUu7-26" value="return state" style="whiteSpace=wrap;html=1;rounded=0;" parent="XSvAmRGnrYX8dZB1Ptjj-1" vertex="1">
          <mxGeometry x="500" y="420" width="120" height="60" as="geometry" />
        </mxCell>
      </root>
    </mxGraphModel>
  </diagram>
  <diagram id="qmWTWD4_LFwH2K2ma5lZ" name="mqtt上传图片">
    <mxGraphModel dx="2261" dy="763" grid="1" gridSize="10" guides="1" tooltips="1" connect="1" arrows="1" fold="1" page="1" pageScale="1" pageWidth="827" pageHeight="1169" math="0" shadow="0">
      <root>
        <mxCell id="6STxujdI_5YFddXIZuhA-0" />
        <mxCell id="6STxujdI_5YFddXIZuhA-1" parent="6STxujdI_5YFddXIZuhA-0" />
        <mxCell id="k0SJzoIbnPzhQZhBJL72-0" value="存放文件路径" style="rounded=0;whiteSpace=wrap;html=1;" parent="6STxujdI_5YFddXIZuhA-1" vertex="1">
          <mxGeometry x="-140" y="100" width="120" height="60" as="geometry" />
        </mxCell>
        <mxCell id="k0SJzoIbnPzhQZhBJL72-1" value="" style="endArrow=none;html=1;" parent="6STxujdI_5YFddXIZuhA-1" edge="1">
          <mxGeometry width="50" height="50" relative="1" as="geometry">
            <mxPoint x="-160" y="960" as="sourcePoint" />
            <mxPoint x="-160" y="40" as="targetPoint" />
          </mxGeometry>
        </mxCell>
        <mxCell id="k0SJzoIbnPzhQZhBJL72-2" value="平台" style="rounded=0;whiteSpace=wrap;html=1;" parent="6STxujdI_5YFddXIZuhA-1" vertex="1">
          <mxGeometry x="-220" y="960" width="120" height="60" as="geometry" />
        </mxCell>
        <mxCell id="k0SJzoIbnPzhQZhBJL72-3" value="" style="endArrow=none;html=1;" parent="6STxujdI_5YFddXIZuhA-1" edge="1">
          <mxGeometry width="50" height="50" relative="1" as="geometry">
            <mxPoint x="-350" y="960" as="sourcePoint" />
            <mxPoint x="-350" y="40" as="targetPoint" />
          </mxGeometry>
        </mxCell>
        <mxCell id="k0SJzoIbnPzhQZhBJL72-4" value="设备" style="rounded=0;whiteSpace=wrap;html=1;" parent="6STxujdI_5YFddXIZuhA-1" vertex="1">
          <mxGeometry x="-410" y="960" width="120" height="60" as="geometry" />
        </mxCell>
        <mxCell id="k0SJzoIbnPzhQZhBJL72-5" value="" style="endArrow=classic;html=1;" parent="6STxujdI_5YFddXIZuhA-1" edge="1">
          <mxGeometry width="50" height="50" relative="1" as="geometry">
            <mxPoint x="-350" y="419.9999999999998" as="sourcePoint" />
            <mxPoint x="-160" y="419.9999999999998" as="targetPoint" />
          </mxGeometry>
        </mxCell>
        <mxCell id="k0SJzoIbnPzhQZhBJL72-6" value="箱门开启-&amp;gt;产生箱门告警" style="rounded=0;whiteSpace=wrap;html=1;" parent="6STxujdI_5YFddXIZuhA-1" vertex="1">
          <mxGeometry x="-320" y="350" width="120" height="60" as="geometry" />
        </mxCell>
        <mxCell id="k0SJzoIbnPzhQZhBJL72-7" value="" style="endArrow=classic;html=1;" parent="6STxujdI_5YFddXIZuhA-1" edge="1">
          <mxGeometry width="50" height="50" relative="1" as="geometry">
            <mxPoint x="-160" y="539.9999999999998" as="sourcePoint" />
            <mxPoint x="-350" y="539.9999999999998" as="targetPoint" />
          </mxGeometry>
        </mxCell>
        <mxCell id="k0SJzoIbnPzhQZhBJL72-8" value="请求获取图片列表" style="rounded=0;whiteSpace=wrap;html=1;" parent="6STxujdI_5YFddXIZuhA-1" vertex="1">
          <mxGeometry x="-320" y="470" width="120" height="60" as="geometry" />
        </mxCell>
        <mxCell id="k0SJzoIbnPzhQZhBJL72-9" value="" style="endArrow=classic;html=1;" parent="6STxujdI_5YFddXIZuhA-1" edge="1">
          <mxGeometry width="50" height="50" relative="1" as="geometry">
            <mxPoint x="-160" y="739.29" as="sourcePoint" />
            <mxPoint x="-350" y="739.29" as="targetPoint" />
          </mxGeometry>
        </mxCell>
        <mxCell id="k0SJzoIbnPzhQZhBJL72-10" value="" style="endArrow=classic;html=1;" parent="6STxujdI_5YFddXIZuhA-1" edge="1">
          <mxGeometry width="50" height="50" relative="1" as="geometry">
            <mxPoint x="-350" y="629.9999999999998" as="sourcePoint" />
            <mxPoint x="-160" y="629.9999999999998" as="targetPoint" />
          </mxGeometry>
        </mxCell>
        <mxCell id="k0SJzoIbnPzhQZhBJL72-11" value="返回图片列表" style="rounded=0;whiteSpace=wrap;html=1;" parent="6STxujdI_5YFddXIZuhA-1" vertex="1">
          <mxGeometry x="-320" y="560" width="120" height="60" as="geometry" />
        </mxCell>
        <mxCell id="k0SJzoIbnPzhQZhBJL72-12" value="请求没有上传的图片" style="rounded=0;whiteSpace=wrap;html=1;" parent="6STxujdI_5YFddXIZuhA-1" vertex="1">
          <mxGeometry x="-320" y="670" width="120" height="60" as="geometry" />
        </mxCell>
        <mxCell id="k0SJzoIbnPzhQZhBJL72-13" value="" style="endArrow=classic;html=1;" parent="6STxujdI_5YFddXIZuhA-1" edge="1">
          <mxGeometry width="50" height="50" relative="1" as="geometry">
            <mxPoint x="-350" y="839" as="sourcePoint" />
            <mxPoint x="-160" y="839" as="targetPoint" />
          </mxGeometry>
        </mxCell>
        <mxCell id="k0SJzoIbnPzhQZhBJL72-14" value="上传图片" style="rounded=0;whiteSpace=wrap;html=1;" parent="6STxujdI_5YFddXIZuhA-1" vertex="1">
          <mxGeometry x="-320" y="769" width="120" height="60" as="geometry" />
        </mxCell>
        <mxCell id="k0SJzoIbnPzhQZhBJL72-15" value="" style="endArrow=classic;html=1;" parent="6STxujdI_5YFddXIZuhA-1" edge="1">
          <mxGeometry width="50" height="50" relative="1" as="geometry">
            <mxPoint x="-160" y="329.9999999999998" as="sourcePoint" />
            <mxPoint x="-350" y="329.9999999999998" as="targetPoint" />
          </mxGeometry>
        </mxCell>
        <mxCell id="k0SJzoIbnPzhQZhBJL72-16" value="删除存放文件路径url" style="rounded=0;whiteSpace=wrap;html=1;" parent="6STxujdI_5YFddXIZuhA-1" vertex="1">
          <mxGeometry x="-320" y="260" width="120" height="60" as="geometry" />
        </mxCell>
        <mxCell id="k0SJzoIbnPzhQZhBJL72-17" value="获取存放文件路径url" style="rounded=0;whiteSpace=wrap;html=1;" parent="6STxujdI_5YFddXIZuhA-1" vertex="1">
          <mxGeometry x="-320" y="160" width="120" height="60" as="geometry" />
        </mxCell>
        <mxCell id="k0SJzoIbnPzhQZhBJL72-18" value="" style="endArrow=classic;html=1;" parent="6STxujdI_5YFddXIZuhA-1" edge="1">
          <mxGeometry width="50" height="50" relative="1" as="geometry">
            <mxPoint x="-160" y="150" as="sourcePoint" />
            <mxPoint x="-350" y="150" as="targetPoint" />
          </mxGeometry>
        </mxCell>
        <mxCell id="k0SJzoIbnPzhQZhBJL72-19" value="注册存放文件路径url" style="rounded=0;whiteSpace=wrap;html=1;" parent="6STxujdI_5YFddXIZuhA-1" vertex="1">
          <mxGeometry x="-320" y="80" width="120" height="60" as="geometry" />
        </mxCell>
        <mxCell id="k0SJzoIbnPzhQZhBJL72-20" value="" style="endArrow=classic;html=1;" parent="6STxujdI_5YFddXIZuhA-1" edge="1">
          <mxGeometry width="50" height="50" relative="1" as="geometry">
            <mxPoint x="-350" y="239.28999999999996" as="sourcePoint" />
            <mxPoint x="-160" y="239.28999999999996" as="targetPoint" />
          </mxGeometry>
        </mxCell>
      </root>
    </mxGraphModel>
  </diagram>
  <diagram id="N4KLXh22lQwoxcOgFVyl" name="switch">
    <mxGraphModel dx="1434" dy="763" grid="1" gridSize="10" guides="1" tooltips="1" connect="1" arrows="1" fold="1" page="1" pageScale="1" pageWidth="827" pageHeight="1169" math="0" shadow="0">
      <root>
        <mxCell id="nDiGaMwlgBh-3FQ-oOS_-0" />
        <mxCell id="nDiGaMwlgBh-3FQ-oOS_-1" parent="nDiGaMwlgBh-3FQ-oOS_-0" />
        <mxCell id="nDiGaMwlgBh-3FQ-oOS_-4" value="" style="edgeStyle=none;html=1;shape=flexArrow;startArrow=block;" parent="nDiGaMwlgBh-3FQ-oOS_-1" source="nDiGaMwlgBh-3FQ-oOS_-2" target="nDiGaMwlgBh-3FQ-oOS_-3" edge="1">
          <mxGeometry relative="1" as="geometry" />
        </mxCell>
        <mxCell id="nDiGaMwlgBh-3FQ-oOS_-6" value="" style="edgeStyle=none;html=1;shape=flexArrow;" parent="nDiGaMwlgBh-3FQ-oOS_-1" source="nDiGaMwlgBh-3FQ-oOS_-2" target="nDiGaMwlgBh-3FQ-oOS_-5" edge="1">
          <mxGeometry relative="1" as="geometry">
            <Array as="points">
              <mxPoint x="180" y="310" />
            </Array>
          </mxGeometry>
        </mxCell>
        <mxCell id="nDiGaMwlgBh-3FQ-oOS_-7" value="smi" style="edgeLabel;html=1;align=center;verticalAlign=middle;resizable=0;points=[];" parent="nDiGaMwlgBh-3FQ-oOS_-6" vertex="1" connectable="0">
          <mxGeometry x="0.4571" y="2" relative="1" as="geometry">
            <mxPoint y="-18" as="offset" />
          </mxGeometry>
        </mxCell>
        <mxCell id="nDiGaMwlgBh-3FQ-oOS_-2" value="external&lt;br&gt;cpu" style="rounded=0;whiteSpace=wrap;html=1;" parent="nDiGaMwlgBh-3FQ-oOS_-1" vertex="1">
          <mxGeometry x="120" y="180" width="120" height="60" as="geometry" />
        </mxCell>
        <mxCell id="nDiGaMwlgBh-3FQ-oOS_-3" value="prestera pp" style="whiteSpace=wrap;html=1;rounded=0;" parent="nDiGaMwlgBh-3FQ-oOS_-1" vertex="1">
          <mxGeometry x="320" y="180" width="120" height="60" as="geometry" />
        </mxCell>
        <mxCell id="nDiGaMwlgBh-3FQ-oOS_-5" value="pipe" style="whiteSpace=wrap;html=1;rounded=0;" parent="nDiGaMwlgBh-3FQ-oOS_-1" vertex="1">
          <mxGeometry x="320" y="280" width="120" height="60" as="geometry" />
        </mxCell>
        <mxCell id="nDiGaMwlgBh-3FQ-oOS_-8" value="pcie" style="edgeLabel;html=1;align=center;verticalAlign=middle;resizable=0;points=[];" parent="nDiGaMwlgBh-3FQ-oOS_-1" vertex="1" connectable="0">
          <mxGeometry x="273" y="300" as="geometry">
            <mxPoint x="1" y="-118" as="offset" />
          </mxGeometry>
        </mxCell>
      </root>
    </mxGraphModel>
  </diagram>
  <diagram id="HDbZb2pPimP5JXTLz66-" name="第 9 页">
    <mxGraphModel dx="1434" dy="763" grid="1" gridSize="10" guides="1" tooltips="1" connect="1" arrows="1" fold="1" page="1" pageScale="1" pageWidth="827" pageHeight="1169" math="0" shadow="0">
      <root>
        <mxCell id="0" />
        <mxCell id="1" parent="0" />
      </root>
    </mxGraphModel>
  </diagram>
</mxfile>
